M48
; DRILL file KiCad 10.0.1 date 2026-08-20T10:53:40
; FORMAT={-:-/ absolute / metric / decimal}
; #@! TF.CreationDate,2026-08-20T10:53:40+03:00
; #@! TF.GenerationSoftware,Kicad,Pcbnew,10.0.1
; #@! TF.FileFunction,Plated,1,2,PTH
FMAT,2
METRIC
; #@! TA.AperFunction,Plated,PTH,ViaDrill
T1C0.300
; #@! TA.AperFunction,Plated,PTH,ComponentDrill
T2C0.700
; #@! TA.AperFunction,Plated,PTH,ComponentDrill
T3C1.000
; #@! TA.AperFunction,Plated,PTH,ComponentDrill
T4C1.020
; #@! TA.AperFunction,Plated,PTH,ComponentDrill
T5C1.300
; #@! TA.AperFunction,Plated,PTH,ComponentDrill
T6C3.200
%
G90
G05
T1
X114.25Y-54.5
X122.0Y-54.4
X124.6Y-54.4
X127.0Y-54.4
X129.2Y-68.8
X129.2Y-72.8
X129.2Y-76.6
X130.4Y-54.4
X132.6Y-68.8
X132.6Y-72.8
X132.6Y-76.6
X136.4Y-68.8
X136.4Y-72.8
X136.4Y-76.6
X140.4Y-68.8
X140.4Y-72.8
X140.4Y-76.6
X145.0Y-68.8
X145.0Y-72.8
X145.0Y-76.6
X150.4Y-68.8
X150.4Y-72.8
X150.4Y-76.6
T2
X67.882Y-82.19
X67.882Y-89.81
X68.0Y-93.59
X68.0Y-101.21
X69.0Y-66.99
X69.0Y-74.61
X107.5Y-58.69
X107.5Y-66.31
X110.0Y-58.69
X110.0Y-66.31
X137.49Y-120.6
X145.11Y-120.6
T3
X73.207Y-105.3
X73.207Y-128.43
X75.748Y-105.3
X75.748Y-128.43
X78.287Y-105.3
X78.287Y-128.43
X80.828Y-105.3
X80.828Y-128.43
X83.367Y-105.3
X83.367Y-128.43
X85.907Y-105.3
X85.907Y-128.43
X88.447Y-105.3
X88.447Y-128.43
X90.987Y-105.3
X90.987Y-128.43
X111.14Y-102.2
X113.68Y-102.2
X116.22Y-102.2
X118.76Y-102.2
X119.88Y-63.15
X119.88Y-65.69
X119.88Y-68.23
X119.88Y-70.77
X119.88Y-73.31
X119.88Y-75.85
X121.3Y-102.2
X123.84Y-102.2
X126.38Y-102.2
X128.92Y-102.2
X131.46Y-102.2
X134.0Y-102.2
X144.84Y-94.84
X144.84Y-105.0
X147.38Y-94.84
X147.38Y-105.0
X149.92Y-94.84
X149.92Y-105.0
X152.46Y-94.84
X152.46Y-105.0
X155.0Y-94.84
X155.0Y-105.0
X157.54Y-94.84
X157.54Y-105.0
X160.08Y-94.84
X160.08Y-105.0
X162.62Y-94.84
X162.62Y-105.0
X163.725Y-79.53
X165.16Y-94.84
X165.16Y-105.0
X166.265Y-79.53
X167.7Y-94.84
X167.7Y-105.0
X168.805Y-79.53
X171.345Y-79.53
X173.885Y-79.53
X176.425Y-79.53
T4
X74.8Y-47.4
X74.8Y-49.94
X74.8Y-52.48
X74.8Y-55.02
X74.8Y-57.56
X74.8Y-60.1
X74.8Y-62.64
X74.8Y-65.18
X74.8Y-67.72
X74.8Y-70.26
X74.8Y-72.8
X74.8Y-75.34
X74.8Y-77.88
X74.8Y-80.42
X74.8Y-82.96
X74.8Y-85.5
X74.8Y-88.04
X74.8Y-90.58
X74.8Y-93.12
X100.2Y-47.4
X100.2Y-49.94
X100.2Y-52.48
X100.2Y-55.02
X100.2Y-57.56
X100.2Y-60.1
X100.2Y-62.64
X100.2Y-65.18
X100.2Y-67.72
X100.2Y-70.26
X100.2Y-72.8
X100.2Y-75.34
X100.2Y-77.88
X100.2Y-80.42
X100.2Y-82.96
X100.2Y-85.5
X100.2Y-88.04
X100.2Y-90.58
X100.2Y-93.12
T5
X61.8Y-102.4
X61.8Y-107.4
X61.832Y-90.8
X61.832Y-95.8
X61.832Y-113.95
X61.832Y-118.95
X61.9Y-56.2
X61.9Y-61.2
X61.9Y-67.6
X61.9Y-72.6
X61.9Y-79.1
X61.9Y-84.1
X107.2Y-126.5
X112.2Y-126.5
X116.75Y-47.582
X117.2Y-126.5
X121.75Y-47.582
X124.2Y-126.6
X128.5Y-47.332
X129.2Y-126.6
X133.5Y-47.332
X134.2Y-126.6
X140.9Y-126.3
X145.9Y-126.3
X150.9Y-126.3
X159.85Y-126.867
X164.85Y-126.867
X169.85Y-126.867
X176.9Y-126.9
X181.9Y-126.9
X186.45Y-47.133
X191.45Y-47.133
X202.0Y-56.3
X202.0Y-61.3
X202.0Y-66.3
X202.0Y-71.3
X202.1Y-77.9
X202.1Y-82.9
X202.1Y-87.9
X202.1Y-92.9
X202.167Y-111.25
X202.167Y-116.25
T6
X62.5Y-50.0
X62.5Y-125.0
X200.0Y-50.0
X200.0Y-125.0
M30
