%TF.GenerationSoftware,KiCad,Pcbnew,10.0.1*%
%TF.CreationDate,2026-08-20T10:53:45+03:00*%
%TF.ProjectId,AWS GATEWAY,41575320-4741-4544-9557-41592e6b6963,rev?*%
%TF.SameCoordinates,Original*%
%TF.FileFunction,Soldermask,Top*%
%TF.FilePolarity,Negative*%
%FSLAX46Y46*%
G04 Gerber Fmt 4.6, Leading zero omitted, Abs format (unit mm)*
G04 Created by KiCad (PCBNEW 10.0.1) date 2026-08-20 10:53:45*
%MOMM*%
%LPD*%
G01*
G04 APERTURE LIST*
G04 Aperture macros list*
%AMRoundRect*
0 Rectangle with rounded corners*
0 $1 Rounding radius*
0 $2 $3 $4 $5 $6 $7 $8 $9 X,Y pos of 4 corners*
0 Add a 4 corners polygon primitive as box body*
4,1,4,$2,$3,$4,$5,$6,$7,$8,$9,$2,$3,0*
0 Add four circle primitives for the rounded corners*
1,1,$1+$1,$2,$3*
1,1,$1+$1,$4,$5*
1,1,$1+$1,$6,$7*
1,1,$1+$1,$8,$9*
0 Add four rect primitives between the rounded corners*
20,1,$1+$1,$2,$3,$4,$5,0*
20,1,$1+$1,$4,$5,$6,$7,0*
20,1,$1+$1,$6,$7,$8,$9,0*
20,1,$1+$1,$8,$9,$2,$3,0*%
G04 Aperture macros list end*
%ADD10RoundRect,0.250001X-1.149999X1.149999X-1.149999X-1.149999X1.149999X-1.149999X1.149999X1.149999X0*%
%ADD11C,2.800000*%
%ADD12R,1.700000X1.700000*%
%ADD13C,1.700000*%
%ADD14RoundRect,0.250001X1.149999X-1.149999X1.149999X1.149999X-1.149999X1.149999X-1.149999X-1.149999X0*%
%ADD15C,1.400000*%
%ADD16C,3.600000*%
%ADD17C,5.600000*%
%ADD18RoundRect,0.250001X1.149999X1.149999X-1.149999X1.149999X-1.149999X-1.149999X1.149999X-1.149999X0*%
%ADD19C,3.000000*%
%ADD20RoundRect,0.250001X-1.149999X-1.149999X1.149999X-1.149999X1.149999X1.149999X-1.149999X1.149999X0*%
%ADD21RoundRect,0.102000X-0.765000X-0.765000X0.765000X-0.765000X0.765000X0.765000X-0.765000X0.765000X0*%
%ADD22C,1.734000*%
G04 APERTURE END LIST*
D10*
%TO.C,J39*%
X61800000Y-102400000D03*
D11*
X61800000Y-107400000D03*
%TD*%
D12*
%TO.C,U4*%
X167700000Y-94840000D03*
D13*
X165160000Y-94840000D03*
X162620000Y-94840000D03*
X160080000Y-94840000D03*
X157540000Y-94840000D03*
X155000000Y-94840000D03*
X152460000Y-94840000D03*
X149920000Y-94840000D03*
X147380000Y-94840000D03*
X144840000Y-94840000D03*
D12*
X167700000Y-105000000D03*
D13*
X165160000Y-105000000D03*
X162620000Y-105000000D03*
X160080000Y-105000000D03*
X157540000Y-105000000D03*
X155000000Y-105000000D03*
X152460000Y-105000000D03*
X149920000Y-105000000D03*
X147380000Y-105000000D03*
X144840000Y-105000000D03*
%TD*%
D14*
%TO.C,J57*%
X202167500Y-116250000D03*
D11*
X202167500Y-111250000D03*
%TD*%
D15*
%TO.C,R15*%
X145110000Y-120600000D03*
X137490000Y-120600000D03*
%TD*%
D16*
%TO.C,H1*%
X62500000Y-50000000D03*
D17*
X62500000Y-50000000D03*
%TD*%
D18*
%TO.C,J59*%
X121750000Y-47582500D03*
D11*
X116750000Y-47582500D03*
%TD*%
D14*
%TO.C,J40*%
X202000000Y-71300000D03*
D11*
X202000000Y-66300000D03*
X202000000Y-61300000D03*
X202000000Y-56300000D03*
%TD*%
D10*
%TO.C,J42*%
X61900000Y-67600000D03*
D11*
X61900000Y-72600000D03*
%TD*%
D19*
%TO.C,TP1*%
X105600000Y-101000000D03*
%TD*%
D12*
%TO.C,SD1*%
X119880000Y-63150000D03*
D13*
X119880000Y-65690000D03*
X119880000Y-68230000D03*
X119880000Y-70770000D03*
X119880000Y-73310000D03*
X119880000Y-75850000D03*
%TD*%
D14*
%TO.C,J41*%
X202100000Y-92900000D03*
D11*
X202100000Y-87900000D03*
X202100000Y-82900000D03*
X202100000Y-77900000D03*
%TD*%
D15*
%TO.C,R11*%
X68000000Y-93590000D03*
X68000000Y-101210000D03*
%TD*%
%TO.C,R6*%
X110000000Y-58690000D03*
X110000000Y-66310000D03*
%TD*%
D12*
%TO.C,U5*%
X163725000Y-79530000D03*
D13*
X166265000Y-79530000D03*
X168805000Y-79530000D03*
X171345000Y-79530000D03*
X173885000Y-79530000D03*
X176425000Y-79530000D03*
%TD*%
D10*
%TO.C,J35*%
X61832500Y-113950000D03*
D11*
X61832500Y-118950000D03*
%TD*%
D15*
%TO.C,R12*%
X69000000Y-66990000D03*
X69000000Y-74610000D03*
%TD*%
D16*
%TO.C,H2*%
X200000000Y-50000000D03*
D17*
X200000000Y-50000000D03*
%TD*%
D10*
%TO.C,J36*%
X61832500Y-90800000D03*
D11*
X61832500Y-95800000D03*
%TD*%
D20*
%TO.C,J43*%
X124200000Y-126600000D03*
D11*
X129200000Y-126600000D03*
X134200000Y-126600000D03*
%TD*%
D10*
%TO.C,J58*%
X61900000Y-56200000D03*
D11*
X61900000Y-61200000D03*
%TD*%
D18*
%TO.C,J66*%
X133500000Y-47332500D03*
D11*
X128500000Y-47332500D03*
%TD*%
D20*
%TO.C,J46*%
X107200000Y-126500000D03*
D11*
X112200000Y-126500000D03*
X117200000Y-126500000D03*
%TD*%
D15*
%TO.C,R7*%
X107500000Y-58690000D03*
X107500000Y-66310000D03*
%TD*%
D20*
%TO.C,J44*%
X140900000Y-126300000D03*
D11*
X145900000Y-126300000D03*
X150900000Y-126300000D03*
%TD*%
D21*
%TO.C,U1*%
X74800000Y-47400000D03*
D22*
X74800000Y-49940000D03*
X74800000Y-52480000D03*
X74800000Y-55020000D03*
X74800000Y-57560000D03*
X74800000Y-60100000D03*
X74800000Y-62640000D03*
X74800000Y-65180000D03*
X74800000Y-67720000D03*
X74800000Y-70260000D03*
X74800000Y-72800000D03*
X74800000Y-75340000D03*
X74800000Y-77880000D03*
X74800000Y-80420000D03*
X74800000Y-82960000D03*
X74800000Y-85500000D03*
X74800000Y-88040000D03*
X74800000Y-90580000D03*
X74800000Y-93120000D03*
X100200000Y-93120000D03*
X100200000Y-90580000D03*
X100200000Y-88040000D03*
X100200000Y-85500000D03*
X100200000Y-82960000D03*
X100200000Y-80420000D03*
X100200000Y-77880000D03*
X100200000Y-75340000D03*
X100200000Y-72800000D03*
X100200000Y-70260000D03*
X100200000Y-67720000D03*
X100200000Y-65180000D03*
X100200000Y-62640000D03*
X100200000Y-60100000D03*
X100200000Y-57560000D03*
X100200000Y-55020000D03*
X100200000Y-52480000D03*
X100200000Y-49940000D03*
X100200000Y-47400000D03*
%TD*%
D20*
%TO.C,J56*%
X176900000Y-126900000D03*
D11*
X181900000Y-126900000D03*
%TD*%
D15*
%TO.C,R10*%
X67882500Y-89810000D03*
X67882500Y-82190000D03*
%TD*%
D12*
%TO.C,GSM1*%
X90987500Y-105300000D03*
D13*
X88447500Y-105300000D03*
X85907500Y-105300000D03*
X83367500Y-105300000D03*
X80827500Y-105300000D03*
X78287500Y-105300000D03*
X75747500Y-105300000D03*
X73207500Y-105300000D03*
X73207500Y-128430000D03*
X75747500Y-128430000D03*
X78287500Y-128430000D03*
X80827500Y-128430000D03*
X83367500Y-128430000D03*
X85907500Y-128430000D03*
X88447500Y-128430000D03*
D12*
X90987500Y-128430000D03*
%TD*%
%TO.C,U6*%
X111140000Y-102200000D03*
D13*
X113680000Y-102200000D03*
X116220000Y-102200000D03*
X118760000Y-102200000D03*
X121300000Y-102200000D03*
X123840000Y-102200000D03*
X126380000Y-102200000D03*
X128920000Y-102200000D03*
X131460000Y-102200000D03*
X134000000Y-102200000D03*
%TD*%
D20*
%TO.C,J45*%
X159850000Y-126867500D03*
D11*
X164850000Y-126867500D03*
X169850000Y-126867500D03*
%TD*%
D18*
%TO.C,J38*%
X191450000Y-47132500D03*
D11*
X186450000Y-47132500D03*
%TD*%
D16*
%TO.C,H4*%
X200000000Y-125000000D03*
D17*
X200000000Y-125000000D03*
%TD*%
D10*
%TO.C,J37*%
X61900000Y-79100000D03*
D11*
X61900000Y-84100000D03*
%TD*%
D16*
%TO.C,H3*%
X62500000Y-125000000D03*
D17*
X62500000Y-125000000D03*
%TD*%
M02*
