%TF.GenerationSoftware,KiCad,Pcbnew,9.0.6*%
%TF.CreationDate,2026-02-17T13:32:23+03:00*%
%TF.ProjectId,AWS PROJECT,41575320-5052-44f4-9a45-43542e6b6963,rev?*%
%TF.SameCoordinates,Original*%
%TF.FileFunction,Plated,1,2,PTH,Mixed*%
%TF.FilePolarity,Positive*%
%FSLAX46Y46*%
G04 Gerber Fmt 4.6, Leading zero omitted, Abs format (unit mm)*
G04 Created by KiCad (PCBNEW 9.0.6) date 2026-02-17 13:32:23*
%MOMM*%
%LPD*%
G01*
G04 APERTURE LIST*
%TA.AperFunction,ComponentDrill*%
%ADD10C,0.200000*%
%TD*%
%TA.AperFunction,ViaDrill*%
%ADD11C,0.300000*%
%TD*%
%TA.AperFunction,ComponentDrill*%
%ADD12C,0.500000*%
%TD*%
G04 aperture for slot hole*
%TA.AperFunction,ComponentDrill*%
%ADD13C,0.600000*%
%TD*%
%TA.AperFunction,ComponentDrill*%
%ADD14C,0.800000*%
%TD*%
%TA.AperFunction,ComponentDrill*%
%ADD15C,1.000000*%
%TD*%
%TA.AperFunction,ComponentDrill*%
%ADD16C,1.050000*%
%TD*%
%TA.AperFunction,ComponentDrill*%
%ADD17C,1.400000*%
%TD*%
%TA.AperFunction,ComponentDrill*%
%ADD18C,2.030000*%
%TD*%
%TA.AperFunction,ComponentDrill*%
%ADD19C,3.200000*%
%TD*%
G04 APERTURE END LIST*
D10*
%TO.C,U4*%
X65470000Y-49730000D03*
X65470000Y-51130000D03*
X66170000Y-49030000D03*
X66170000Y-50430000D03*
X66170000Y-51830000D03*
X66870000Y-49730000D03*
X66870000Y-51130000D03*
X67570000Y-49030000D03*
X67570000Y-50430000D03*
X67570000Y-51830000D03*
X68270000Y-49730000D03*
X68270000Y-51130000D03*
%TO.C,U3*%
X109995000Y-81435000D03*
X111270000Y-80660000D03*
X111270000Y-82210000D03*
X112545000Y-81435000D03*
%TO.C,U15*%
X148025000Y-85750000D03*
X148025000Y-86450000D03*
X148825000Y-85750000D03*
X148825000Y-86450000D03*
%TD*%
D11*
X44525000Y-82457500D03*
X45030000Y-92312500D03*
X47150000Y-109940000D03*
X47790000Y-46290000D03*
X47790000Y-48270000D03*
X47830000Y-50140000D03*
X47830000Y-51830000D03*
X50060000Y-112380000D03*
X50310000Y-74710000D03*
X51250000Y-41260000D03*
X52140000Y-53430000D03*
X52250000Y-49600000D03*
X52250000Y-51737606D03*
X52640000Y-104180000D03*
X52640000Y-108500000D03*
X52810000Y-106320000D03*
X55470000Y-74660000D03*
X55590000Y-106360000D03*
X55660000Y-104090000D03*
X55660000Y-108410000D03*
X55750000Y-39910000D03*
X55860000Y-72560000D03*
X56910000Y-39930000D03*
X58220000Y-39930000D03*
X58230000Y-73940000D03*
X58250000Y-75670000D03*
X58300000Y-77040000D03*
X58320000Y-78770000D03*
X58360000Y-80090000D03*
X58380000Y-81820000D03*
X59330000Y-63110000D03*
X61267332Y-56052100D03*
X61320000Y-53530000D03*
X61540000Y-64540000D03*
X61610000Y-54910000D03*
X61640000Y-56760000D03*
X61744342Y-51250000D03*
X61960000Y-52450000D03*
X62060000Y-63090000D03*
X62340000Y-50690000D03*
X63190000Y-70400000D03*
X63920000Y-111460000D03*
X66090000Y-95310000D03*
X66090000Y-110870000D03*
X67070000Y-41230000D03*
X67090000Y-42960000D03*
X67330000Y-110900000D03*
X67500000Y-72150000D03*
X68270000Y-49030000D03*
X68270000Y-51830000D03*
X68320000Y-56220000D03*
X68750000Y-58480000D03*
X69230000Y-41260000D03*
X69260000Y-42920000D03*
X69430000Y-46970000D03*
X70000000Y-72400000D03*
X70250000Y-73650000D03*
X70390000Y-55520000D03*
X70970000Y-64170000D03*
X71000000Y-72400000D03*
X71000000Y-73650000D03*
X71180000Y-67760000D03*
X71440000Y-41230000D03*
X71490000Y-103000000D03*
X71680000Y-43580000D03*
X73240000Y-53790000D03*
X73600000Y-41260000D03*
X73600000Y-43490000D03*
X74230000Y-55550000D03*
X74400000Y-123840000D03*
X74420000Y-125350000D03*
X74480000Y-126880000D03*
X74550000Y-116050000D03*
X74570000Y-49830000D03*
X74590000Y-112640000D03*
X74630000Y-117930000D03*
X74630000Y-120100000D03*
X74851798Y-54690000D03*
X75080000Y-44380000D03*
X75180000Y-52830000D03*
X76080000Y-114150000D03*
X76190000Y-74560000D03*
X76210000Y-71910000D03*
X76260000Y-73230000D03*
X76340000Y-116030000D03*
X76380000Y-118030000D03*
X76380000Y-120130000D03*
X76825000Y-69465000D03*
X77390000Y-74600000D03*
X77430000Y-73260000D03*
X77440000Y-71910000D03*
X78880000Y-107180000D03*
X78910000Y-112140000D03*
X78990000Y-110330000D03*
X79090000Y-48220000D03*
X79160000Y-46920000D03*
X79580000Y-59510000D03*
X79640000Y-55910000D03*
X80300000Y-59010000D03*
X80750000Y-53650000D03*
X80890000Y-54920000D03*
X81070000Y-115850000D03*
X81340000Y-113510000D03*
X81390000Y-109290000D03*
X81510000Y-111330000D03*
X81560000Y-107110000D03*
X81970000Y-126940000D03*
X82010000Y-125350000D03*
X82040000Y-123860000D03*
X82600000Y-60760000D03*
X83700000Y-125350000D03*
X83760000Y-123840000D03*
X83830000Y-127010000D03*
X83850000Y-115890000D03*
X83920000Y-117940000D03*
X84290000Y-111370000D03*
X84340000Y-107150000D03*
X84360000Y-113420000D03*
X84410000Y-109200000D03*
X86510000Y-50030000D03*
X86630000Y-47030000D03*
X86640000Y-117960000D03*
X86720000Y-115960000D03*
X87080000Y-113440000D03*
X87130000Y-109220000D03*
X87160000Y-111440000D03*
X87210000Y-107220000D03*
X87450000Y-52330000D03*
X88090000Y-122160000D03*
X88550000Y-49090000D03*
X88750000Y-46650000D03*
X88810000Y-51515000D03*
X89000000Y-45150000D03*
X89270000Y-115980000D03*
X89330000Y-117920000D03*
X89710000Y-111460000D03*
X89750000Y-46150000D03*
X89760000Y-107240000D03*
X89770000Y-113400000D03*
X89820000Y-109180000D03*
X90410000Y-62360000D03*
X90670000Y-40230000D03*
X90690000Y-41960000D03*
X90764604Y-43834641D03*
X92000000Y-41150000D03*
X92000000Y-42900000D03*
X92000000Y-46650000D03*
X92120000Y-113610000D03*
X92120000Y-117930000D03*
X92290000Y-111430000D03*
X92290000Y-115750000D03*
X92300000Y-63540000D03*
X92830000Y-40260000D03*
X92860000Y-41920000D03*
X92860000Y-44010000D03*
X92900000Y-74420000D03*
X92920000Y-76150000D03*
X93750000Y-46650000D03*
X95060000Y-74450000D03*
X95070000Y-111470000D03*
X95070000Y-115790000D03*
X95090000Y-76110000D03*
X95140000Y-113520000D03*
X95140000Y-117840000D03*
X96590000Y-74380000D03*
X96610000Y-76110000D03*
X97860000Y-113540000D03*
X97860000Y-117860000D03*
X97940000Y-111540000D03*
X97940000Y-115860000D03*
X98620000Y-53310000D03*
X98750000Y-74410000D03*
X98780000Y-76070000D03*
X100130000Y-98280000D03*
X100300000Y-108340000D03*
X100490000Y-111560000D03*
X100490000Y-115880000D03*
X100530000Y-104240000D03*
X100550000Y-113500000D03*
X100550000Y-117820000D03*
X101990000Y-53360000D03*
X105870000Y-52910000D03*
X106020000Y-58150000D03*
X106170000Y-56410000D03*
X106300000Y-99700000D03*
X106470000Y-97520000D03*
X107940000Y-82090000D03*
X108170000Y-80750000D03*
X108680000Y-78480000D03*
X109170000Y-84010000D03*
X109250000Y-97560000D03*
X109250000Y-109400000D03*
X109320000Y-99610000D03*
X110110000Y-86250000D03*
X112040000Y-99630000D03*
X112120000Y-97630000D03*
X113950000Y-82020000D03*
X114630000Y-55840000D03*
X114650000Y-57570000D03*
X114670000Y-97650000D03*
X114730000Y-99590000D03*
X114750000Y-106900000D03*
X115830000Y-65120000D03*
X115850000Y-66850000D03*
X115900000Y-68870000D03*
X115920000Y-70600000D03*
X116250000Y-108900000D03*
X116790000Y-55870000D03*
X116820000Y-57530000D03*
X117000000Y-109550000D03*
X117370000Y-83320000D03*
X117390000Y-85050000D03*
X117540000Y-51000000D03*
X117560000Y-52730000D03*
X117680000Y-45410000D03*
X117990000Y-65150000D03*
X118020000Y-66810000D03*
X118060000Y-68900000D03*
X118090000Y-70560000D03*
X118360000Y-57630000D03*
X118390000Y-55840000D03*
X118900000Y-101930000D03*
X119530000Y-83350000D03*
X119560000Y-85010000D03*
X120330000Y-65120000D03*
X120350000Y-66850000D03*
X121640000Y-89270000D03*
X121660000Y-81720000D03*
X122090000Y-45420000D03*
X122490000Y-65150000D03*
X122520000Y-66810000D03*
X123140000Y-109290000D03*
X124300000Y-96440000D03*
X124430000Y-99040000D03*
X124540000Y-101260000D03*
X124540000Y-102190000D03*
X124590000Y-97670000D03*
X124800000Y-61460000D03*
X124820000Y-63190000D03*
X124860000Y-65120000D03*
X124880000Y-66850000D03*
X125350000Y-96430000D03*
X125390000Y-98490000D03*
X125810000Y-69260000D03*
X126000000Y-97640000D03*
X126260000Y-102160000D03*
X126270000Y-100920000D03*
X126570000Y-96440000D03*
X126960000Y-61490000D03*
X126990000Y-63150000D03*
X127020000Y-65150000D03*
X127050000Y-66810000D03*
X127240000Y-97200000D03*
X127460000Y-99730000D03*
X127460000Y-102280000D03*
X127530000Y-100900000D03*
X128270000Y-96980000D03*
X129670000Y-96850000D03*
X129780000Y-102940000D03*
X130760000Y-96830000D03*
X131900000Y-96890000D03*
X132360000Y-99720000D03*
X132460000Y-100720000D03*
X132470000Y-101780000D03*
X132579999Y-104450002D03*
X132620000Y-112960000D03*
X132850000Y-95760000D03*
X133540000Y-94980000D03*
X134200000Y-101450000D03*
X134660000Y-95030000D03*
X135680000Y-101490000D03*
X136030000Y-95050000D03*
X137280000Y-100200000D03*
X137280000Y-101560000D03*
X137440000Y-95120000D03*
X137490000Y-96880000D03*
X142000000Y-101750000D03*
X142000000Y-104750000D03*
X142000000Y-107500000D03*
X142000000Y-111750000D03*
X142000000Y-114750000D03*
X142000000Y-117500000D03*
X142250000Y-94000000D03*
X142250000Y-95250000D03*
X142250000Y-96500000D03*
X142500000Y-84500000D03*
X142500000Y-85750000D03*
X143500000Y-84500000D03*
X143500000Y-85750000D03*
X144200000Y-87140000D03*
X144200000Y-87890000D03*
X144200000Y-88640000D03*
X144500000Y-84500000D03*
X144500000Y-85750000D03*
X144750000Y-75500000D03*
X144750000Y-76500000D03*
X144750000Y-77500000D03*
X144750000Y-78500000D03*
X144750000Y-82250000D03*
X144750000Y-94000000D03*
X144750000Y-95250000D03*
X144750000Y-96500000D03*
X144750000Y-101750000D03*
X144750000Y-104500000D03*
X144750000Y-107500000D03*
X144750000Y-111750000D03*
X144750000Y-114500000D03*
X144750000Y-117500000D03*
X144950000Y-87140000D03*
X144950000Y-87890000D03*
X144950000Y-88640000D03*
X145500000Y-84500000D03*
X145500000Y-85250000D03*
X145700000Y-87140000D03*
X145700000Y-87890000D03*
X145700000Y-88640000D03*
X147000000Y-94000000D03*
X147000000Y-95250000D03*
X147000000Y-96500000D03*
X147250000Y-75500000D03*
X147250000Y-76500000D03*
X147250000Y-77500000D03*
X147250000Y-78500000D03*
X147250000Y-84250000D03*
X147500000Y-88250000D03*
X147750000Y-101750000D03*
X147750000Y-104500000D03*
X147750000Y-107500000D03*
X147750000Y-111750000D03*
X147750000Y-114500000D03*
X147750000Y-117500000D03*
X149000000Y-94000000D03*
X149000000Y-95250000D03*
X149000000Y-96500000D03*
X149500000Y-75500000D03*
X149500000Y-76500000D03*
X149500000Y-77500000D03*
X149500000Y-78500000D03*
X149500000Y-88000000D03*
X149750000Y-84250000D03*
X151250000Y-84750000D03*
X151250000Y-85750000D03*
X151500000Y-75500000D03*
X151500000Y-76500000D03*
X151500000Y-77500000D03*
X151500000Y-78500000D03*
X152250000Y-82250000D03*
X152250000Y-84750000D03*
X152250000Y-85750000D03*
X152700000Y-86890000D03*
X152700000Y-87640000D03*
X153000000Y-84750000D03*
X153000000Y-85750000D03*
X153237500Y-117500000D03*
X153500000Y-90750000D03*
X153500000Y-91750000D03*
X153500000Y-92750000D03*
X153500000Y-93750000D03*
X153700000Y-86890000D03*
X153700000Y-87640000D03*
X153750000Y-84750000D03*
X153750000Y-85750000D03*
X154500000Y-90750000D03*
X154500000Y-91750000D03*
X154500000Y-92750000D03*
X154500000Y-93750000D03*
X154700000Y-86890000D03*
X154700000Y-87640000D03*
X155500000Y-90750000D03*
X155500000Y-91750000D03*
X155500000Y-92750000D03*
X155500000Y-93750000D03*
X155700000Y-86890000D03*
X155700000Y-87640000D03*
X156500000Y-117250000D03*
X156637500Y-112500000D03*
X157495210Y-96306666D03*
X157515210Y-86896666D03*
X157750000Y-114000000D03*
X159000000Y-92000000D03*
X159000000Y-93000000D03*
X159637500Y-98500000D03*
X160250000Y-92000000D03*
X160250000Y-93000000D03*
X160462500Y-103637500D03*
X160500000Y-114500000D03*
X160750000Y-107500000D03*
X161387500Y-96490000D03*
X161500000Y-92000000D03*
X161500000Y-93000000D03*
X161750000Y-107500000D03*
X163750000Y-74750000D03*
X163750000Y-77750000D03*
X163750000Y-80500000D03*
X164000000Y-104750000D03*
X164000000Y-107250000D03*
X164750000Y-112750000D03*
X166000000Y-101000000D03*
X166500000Y-74750000D03*
X166500000Y-77500000D03*
X166500000Y-80500000D03*
X167387500Y-105315000D03*
X167500000Y-85750000D03*
X167500000Y-87000000D03*
X168000000Y-108000000D03*
X168500000Y-85750000D03*
X168500000Y-87000000D03*
X169285210Y-52656666D03*
X169500000Y-74750000D03*
X169500000Y-77500000D03*
X169500000Y-80500000D03*
X169500000Y-85750000D03*
X169500000Y-87000000D03*
X169500000Y-88500000D03*
X169500000Y-89750000D03*
X171000000Y-106250000D03*
X171615210Y-48276666D03*
X172495210Y-55906666D03*
X172500000Y-101250000D03*
X172795210Y-60476666D03*
X174355210Y-55656666D03*
X175250000Y-88000000D03*
X175735210Y-65236666D03*
X175865210Y-56036666D03*
X175897710Y-49214166D03*
X175915210Y-51116666D03*
X175925210Y-53156666D03*
X176065210Y-59996666D03*
X176065210Y-67736666D03*
X176250000Y-85250000D03*
X176250000Y-86500000D03*
X176250000Y-88000000D03*
X176500000Y-100000000D03*
X176500000Y-101000000D03*
X176500000Y-102000000D03*
X176500000Y-112000000D03*
X176605210Y-65496666D03*
X177215210Y-67736666D03*
X177485210Y-55846666D03*
X177500000Y-85250000D03*
X177500000Y-86500000D03*
X177500000Y-88000000D03*
X177500000Y-89250000D03*
X177905210Y-49256666D03*
X177922710Y-51159166D03*
X177932710Y-53199166D03*
X178000000Y-100000000D03*
X178000000Y-101000000D03*
X178000000Y-102000000D03*
X178500000Y-85250000D03*
X178500000Y-86500000D03*
X178500000Y-88000000D03*
X178500000Y-89250000D03*
X179415210Y-44946666D03*
X179500000Y-96500000D03*
X179500000Y-97500000D03*
X179500000Y-98500000D03*
X179500000Y-100000000D03*
X179500000Y-101000000D03*
X179500000Y-102000000D03*
X179725210Y-57996666D03*
X179745210Y-57136666D03*
X180195210Y-56456666D03*
X180205210Y-42076666D03*
X180393528Y-45909591D03*
X181000000Y-96500000D03*
X181000000Y-97500000D03*
X181000000Y-98500000D03*
X181250000Y-115750000D03*
X181250000Y-118750000D03*
X181250000Y-121500000D03*
X181495210Y-47276666D03*
X181935210Y-67136666D03*
X182500000Y-96500000D03*
X182500000Y-97500000D03*
X182500000Y-98500000D03*
X182500000Y-103000000D03*
X182500000Y-104750000D03*
X183000000Y-107500000D03*
X183000000Y-108500000D03*
X183000000Y-109500000D03*
X183205210Y-55006666D03*
X183925210Y-50556666D03*
X184000000Y-115750000D03*
X184000000Y-118500000D03*
X184000000Y-121500000D03*
X184085210Y-45486666D03*
X184250000Y-104750000D03*
X184355210Y-61326666D03*
X184500000Y-107500000D03*
X184500000Y-108500000D03*
X184500000Y-109500000D03*
X184750000Y-56000000D03*
X184875210Y-51266666D03*
X185475210Y-44806666D03*
X185983750Y-86983750D03*
X186000000Y-107500000D03*
X186000000Y-108500000D03*
X186000000Y-109500000D03*
X186865210Y-61276666D03*
X186925210Y-57476666D03*
X187000000Y-89500000D03*
X187000000Y-91000000D03*
X187000000Y-92500000D03*
X187000000Y-94250000D03*
X187000000Y-95750000D03*
X187000000Y-97250000D03*
X187000000Y-115750000D03*
X187000000Y-118500000D03*
X187000000Y-121500000D03*
X187250000Y-107500000D03*
X187250000Y-108500000D03*
X187250000Y-109500000D03*
X187845210Y-42246666D03*
X187975210Y-39336666D03*
X188085210Y-40516666D03*
X188500000Y-89500000D03*
X188500000Y-91000000D03*
X188500000Y-92500000D03*
X188500000Y-94250000D03*
X188500000Y-95750000D03*
X188500000Y-97250000D03*
X188500000Y-107500000D03*
X188500000Y-108500000D03*
X188500000Y-109500000D03*
X188625210Y-46806666D03*
X190000000Y-89500000D03*
X190000000Y-91000000D03*
X190000000Y-92500000D03*
X190000000Y-94250000D03*
X190000000Y-95750000D03*
X190000000Y-97250000D03*
X190000000Y-105750000D03*
X190000000Y-115750000D03*
X190000000Y-118750000D03*
X190000000Y-121500000D03*
X190195210Y-40516666D03*
X190305210Y-39436666D03*
X190305210Y-42246666D03*
X190500000Y-58750000D03*
X192750000Y-115750000D03*
X192750000Y-118500000D03*
X192750000Y-121500000D03*
X195750000Y-115750000D03*
X195750000Y-118500000D03*
X195750000Y-121500000D03*
X196250000Y-54250000D03*
X196250000Y-57000000D03*
X198000000Y-73250000D03*
X198250000Y-115500000D03*
X198250000Y-118500000D03*
X198250000Y-121250000D03*
X198500000Y-70500000D03*
X199000000Y-42000000D03*
X199000000Y-51250000D03*
X199000000Y-54000000D03*
X199000000Y-57000000D03*
X201000000Y-115500000D03*
X201000000Y-118250000D03*
X201000000Y-121250000D03*
X202000000Y-42000000D03*
X202000000Y-51250000D03*
X202000000Y-54000000D03*
X202000000Y-57000000D03*
X204000000Y-115500000D03*
X204000000Y-118250000D03*
X204000000Y-121250000D03*
X209265210Y-62976666D03*
X220000000Y-116750000D03*
X220000000Y-119750000D03*
X220000000Y-122500000D03*
X222750000Y-116750000D03*
X222750000Y-119500000D03*
X222750000Y-122500000D03*
X223615210Y-41426666D03*
X223625210Y-42356666D03*
X224655210Y-94956666D03*
X224835210Y-42386666D03*
X224955210Y-41396666D03*
X225750000Y-116750000D03*
X225750000Y-119500000D03*
X225750000Y-122500000D03*
X227000000Y-64500000D03*
X227000000Y-66250000D03*
X227500000Y-98500000D03*
X227500000Y-100750000D03*
X227500000Y-102750000D03*
X229000000Y-98500000D03*
X229000000Y-100500000D03*
X229035210Y-64336666D03*
X229095210Y-66406666D03*
X229195210Y-59706666D03*
X229250000Y-102750000D03*
X230750000Y-98500000D03*
X230750000Y-100500000D03*
X230750000Y-102500000D03*
X232000000Y-110750000D03*
X232000000Y-113750000D03*
X232000000Y-116500000D03*
X232500000Y-98500000D03*
X232500000Y-100500000D03*
X232500000Y-102500000D03*
X232750000Y-47750000D03*
X232750000Y-50750000D03*
X232750000Y-53500000D03*
X234750000Y-110750000D03*
X234750000Y-113500000D03*
X234750000Y-116500000D03*
X235500000Y-47750000D03*
X235500000Y-50500000D03*
X235500000Y-53500000D03*
X237750000Y-110750000D03*
X237750000Y-113500000D03*
X237750000Y-116500000D03*
X238500000Y-47750000D03*
X238500000Y-50500000D03*
X238500000Y-53500000D03*
D12*
%TO.C,REF\u002A\u002A*%
X38270000Y-42250000D03*
X38270000Y-123500000D03*
X38972944Y-40552944D03*
X38972944Y-43947056D03*
X38972944Y-121802944D03*
X38972944Y-125197056D03*
X40670000Y-39850000D03*
X40670000Y-44650000D03*
X40670000Y-121100000D03*
X40670000Y-125900000D03*
X42367056Y-40552944D03*
X42367056Y-43947056D03*
X42367056Y-121802944D03*
X42367056Y-125197056D03*
X43070000Y-42250000D03*
X43070000Y-123500000D03*
X131270000Y-42250000D03*
X131270000Y-123500000D03*
X131972944Y-40552944D03*
X131972944Y-43947056D03*
X131972944Y-121802944D03*
X131972944Y-125197056D03*
X133670000Y-39850000D03*
X133670000Y-44650000D03*
X133670000Y-121100000D03*
X133670000Y-125900000D03*
X135367056Y-40552944D03*
X135367056Y-43947056D03*
X135367056Y-121802944D03*
X135367056Y-125197056D03*
X136070000Y-42250000D03*
X136070000Y-123500000D03*
X141600000Y-42250000D03*
X141600000Y-123500000D03*
X142302944Y-40552944D03*
X142302944Y-43947056D03*
X142302944Y-121802944D03*
X142302944Y-125197056D03*
X144000000Y-39850000D03*
X144000000Y-44650000D03*
X144000000Y-121100000D03*
X144000000Y-125900000D03*
X145697056Y-40552944D03*
X145697056Y-43947056D03*
X145697056Y-121802944D03*
X145697056Y-125197056D03*
X146400000Y-42250000D03*
X146400000Y-123500000D03*
X234600000Y-42250000D03*
X234600000Y-123500000D03*
X235302944Y-40552944D03*
X235302944Y-43947056D03*
X235302944Y-121802944D03*
X235302944Y-125197056D03*
X237000000Y-39850000D03*
X237000000Y-44650000D03*
X237000000Y-121100000D03*
X237000000Y-125900000D03*
X238697056Y-40552944D03*
X238697056Y-43947056D03*
X238697056Y-121802944D03*
X238697056Y-125197056D03*
X239400000Y-42250000D03*
X239400000Y-123500000D03*
D13*
%TO.C,J24*%
X115475000Y-38927500D02*
X115475000Y-39727500D01*
X115475000Y-42947500D02*
X115475000Y-44047500D01*
X124125000Y-38927500D02*
X124125000Y-39727500D01*
X124125000Y-42947500D02*
X124125000Y-44047500D01*
D14*
%TO.C,SW1*%
X145987500Y-63732500D03*
X145987500Y-71352500D03*
%TO.C,SW2*%
X158987500Y-63732500D03*
X158987500Y-71352500D03*
D15*
%TO.C,J19*%
X40145000Y-49817500D03*
X40145000Y-52317500D03*
X40145000Y-54817500D03*
%TO.C,J20*%
X40200000Y-69270000D03*
X40200000Y-71770000D03*
X40200000Y-74270000D03*
%TO.C,J12*%
X40250000Y-80170000D03*
X40250000Y-82670000D03*
X40250000Y-85170000D03*
%TO.C,J22*%
X40260000Y-110840000D03*
X40260000Y-113340000D03*
X40260000Y-115840000D03*
%TO.C,J18*%
X40265000Y-99632500D03*
X40265000Y-102132500D03*
X40265000Y-104632500D03*
%TO.C,J6*%
X49510000Y-57350000D03*
X49510000Y-59890000D03*
X49510000Y-62430000D03*
X49510000Y-64970000D03*
X49510000Y-67510000D03*
X49510000Y-70050000D03*
%TO.C,J1*%
X50170000Y-48045000D03*
X50170000Y-50585000D03*
%TO.C,J15*%
X51847500Y-125685000D03*
X54347500Y-125685000D03*
X56847500Y-125685000D03*
%TO.C,J9*%
X58230000Y-98305000D03*
X58230000Y-100845000D03*
%TO.C,J10*%
X58240000Y-104685000D03*
X58240000Y-107225000D03*
%TO.C,J15*%
X59347500Y-125685000D03*
%TO.C,J8*%
X66530000Y-125590000D03*
X69070000Y-125590000D03*
%TO.C,J4*%
X85940000Y-56650000D03*
X85940000Y-59190000D03*
%TO.C,J3*%
X88820000Y-100510000D03*
X88820000Y-103050000D03*
%TO.C,J5*%
X95730000Y-45630000D03*
X95730000Y-48170000D03*
X95730000Y-50710000D03*
X95730000Y-53250000D03*
%TO.C,J2*%
X95730000Y-57095000D03*
X95730000Y-59635000D03*
%TO.C,J17*%
X134680000Y-54630000D03*
X134680000Y-57130000D03*
X134680000Y-59630000D03*
X134680000Y-62130000D03*
%TO.C,J11*%
X134695000Y-68312500D03*
X134695000Y-70812500D03*
X134695000Y-73312500D03*
X134695000Y-75812500D03*
%TO.C,J29*%
X169700210Y-63046666D03*
X172240210Y-63046666D03*
%TO.C,J31*%
X174480210Y-40236666D03*
X177020210Y-40236666D03*
%TO.C,J32*%
X180590210Y-40236666D03*
X183130210Y-40236666D03*
%TO.C,J30*%
X193935210Y-53596666D03*
X193935210Y-56136666D03*
%TO.C,J28*%
X221795210Y-39936666D03*
X224295210Y-39936666D03*
X226795210Y-39936666D03*
X229295210Y-39936666D03*
D16*
%TO.C,J14*%
X40125000Y-60722500D03*
X40125000Y-63222500D03*
%TO.C,J13*%
X40140000Y-91040000D03*
X40140000Y-93540000D03*
%TO.C,J21*%
X85510000Y-41301500D03*
X88010000Y-41301500D03*
%TO.C,J23*%
X134620000Y-82610000D03*
X134620000Y-85110000D03*
%TO.C,J33*%
X193057710Y-41471666D03*
X195557710Y-41471666D03*
D17*
%TO.C,J25*%
X150975210Y-44954166D03*
X155975210Y-44954166D03*
%TO.C,J26*%
X162465210Y-45016666D03*
X167465210Y-45016666D03*
%TO.C,J27*%
X235132500Y-100500000D03*
X235132500Y-105500000D03*
D18*
%TO.C,BT1*%
X95295000Y-70340000D03*
X111195000Y-70340000D03*
D19*
%TO.C,REF\u002A\u002A*%
X40670000Y-42250000D03*
X40670000Y-123500000D03*
X133670000Y-42250000D03*
X133670000Y-123500000D03*
X144000000Y-42250000D03*
%TO.C,*%
X144000000Y-123500000D03*
%TO.C,REF\u002A\u002A*%
X144000000Y-123500000D03*
X237000000Y-42250000D03*
X237000000Y-123500000D03*
M02*
