%TF.GenerationSoftware,KiCad,Pcbnew,9.0.6*%
%TF.CreationDate,2026-02-17T13:33:00+03:00*%
%TF.ProjectId,AWS PROJECT,41575320-5052-44f4-9a45-43542e6b6963,rev?*%
%TF.SameCoordinates,Original*%
%TF.FileFunction,Paste,Bot*%
%TF.FilePolarity,Positive*%
%FSLAX46Y46*%
G04 Gerber Fmt 4.6, Leading zero omitted, Abs format (unit mm)*
G04 Created by KiCad (PCBNEW 9.0.6) date 2026-02-17 13:33:00*
%MOMM*%
%LPD*%
G01*
G04 APERTURE LIST*
G04 Aperture macros list*
%AMRoundRect*
0 Rectangle with rounded corners*
0 $1 Rounding radius*
0 $2 $3 $4 $5 $6 $7 $8 $9 X,Y pos of 4 corners*
0 Add a 4 corners polygon primitive as box body*
4,1,4,$2,$3,$4,$5,$6,$7,$8,$9,$2,$3,0*
0 Add four circle primitives for the rounded corners*
1,1,$1+$1,$2,$3*
1,1,$1+$1,$4,$5*
1,1,$1+$1,$6,$7*
1,1,$1+$1,$8,$9*
0 Add four rect primitives between the rounded corners*
20,1,$1+$1,$2,$3,$4,$5,0*
20,1,$1+$1,$4,$5,$6,$7,0*
20,1,$1+$1,$6,$7,$8,$9,0*
20,1,$1+$1,$8,$9,$2,$3,0*%
G04 Aperture macros list end*
%ADD10C,0.010000*%
%ADD11RoundRect,0.200000X-0.275000X0.200000X-0.275000X-0.200000X0.275000X-0.200000X0.275000X0.200000X0*%
%ADD12R,0.860000X0.270000*%
%ADD13R,0.270000X0.860000*%
%ADD14RoundRect,0.225000X0.225000X0.250000X-0.225000X0.250000X-0.225000X-0.250000X0.225000X-0.250000X0*%
%ADD15RoundRect,0.200000X0.200000X0.275000X-0.200000X0.275000X-0.200000X-0.275000X0.200000X-0.275000X0*%
%ADD16RoundRect,0.200000X0.275000X-0.200000X0.275000X0.200000X-0.275000X0.200000X-0.275000X-0.200000X0*%
%ADD17RoundRect,0.225000X-0.250000X0.225000X-0.250000X-0.225000X0.250000X-0.225000X0.250000X0.225000X0*%
%ADD18RoundRect,0.200000X-0.200000X-0.275000X0.200000X-0.275000X0.200000X0.275000X-0.200000X0.275000X0*%
%ADD19R,1.400000X1.200000*%
%ADD20RoundRect,0.225000X0.250000X-0.225000X0.250000X0.225000X-0.250000X0.225000X-0.250000X-0.225000X0*%
%ADD21RoundRect,0.250000X0.625000X-0.375000X0.625000X0.375000X-0.625000X0.375000X-0.625000X-0.375000X0*%
%ADD22RoundRect,0.225000X-0.225000X-0.250000X0.225000X-0.250000X0.225000X0.250000X-0.225000X0.250000X0*%
%ADD23RoundRect,0.375000X0.375000X-0.625000X0.375000X0.625000X-0.375000X0.625000X-0.375000X-0.625000X0*%
%ADD24RoundRect,0.500000X1.400000X-0.500000X1.400000X0.500000X-1.400000X0.500000X-1.400000X-0.500000X0*%
%ADD25RoundRect,0.112500X0.187500X0.112500X-0.187500X0.112500X-0.187500X-0.112500X0.187500X-0.112500X0*%
%ADD26R,1.230000X0.400000*%
%ADD27R,5.000000X5.000000*%
%ADD28RoundRect,0.218750X-0.218750X-0.256250X0.218750X-0.256250X0.218750X0.256250X-0.218750X0.256250X0*%
%ADD29R,1.000000X2.300000*%
%ADD30R,1.100000X1.000000*%
%ADD31R,1.000000X0.800000*%
%ADD32R,0.700000X1.100000*%
%ADD33R,0.900000X0.930000*%
%ADD34R,1.050000X0.780000*%
%ADD35R,1.140000X1.830000*%
%ADD36R,0.860000X2.800000*%
%ADD37R,0.700000X3.330000*%
G04 APERTURE END LIST*
D10*
%TO.C,U18*%
X180175210Y-53491666D02*
X178405210Y-53491666D01*
X178405210Y-51721666D01*
X180175210Y-51721666D01*
X180175210Y-53491666D01*
G36*
X180175210Y-53491666D02*
G01*
X178405210Y-53491666D01*
X178405210Y-51721666D01*
X180175210Y-51721666D01*
X180175210Y-53491666D01*
G37*
X180175210Y-50691666D02*
X178405210Y-50691666D01*
X178405210Y-48921666D01*
X180175210Y-48921666D01*
X180175210Y-50691666D01*
G36*
X180175210Y-50691666D02*
G01*
X178405210Y-50691666D01*
X178405210Y-48921666D01*
X180175210Y-48921666D01*
X180175210Y-50691666D01*
G37*
X177375210Y-53491666D02*
X175605210Y-53491666D01*
X175605210Y-51721666D01*
X177375210Y-51721666D01*
X177375210Y-53491666D01*
G36*
X177375210Y-53491666D02*
G01*
X175605210Y-53491666D01*
X175605210Y-51721666D01*
X177375210Y-51721666D01*
X177375210Y-53491666D01*
G37*
X177375210Y-50691666D02*
X175605210Y-50691666D01*
X175605210Y-48921666D01*
X177375210Y-48921666D01*
X177375210Y-50691666D01*
G36*
X177375210Y-50691666D02*
G01*
X175605210Y-50691666D01*
X175605210Y-48921666D01*
X177375210Y-48921666D01*
X177375210Y-50691666D01*
G37*
%TD*%
D11*
%TO.C,R81*%
X184675210Y-58751666D03*
X184675210Y-57101666D03*
%TD*%
D12*
%TO.C,U18*%
X181325210Y-53956666D03*
X181325210Y-53456666D03*
X181325210Y-52956666D03*
X181325210Y-52456666D03*
X181325210Y-51956666D03*
X181325210Y-51456666D03*
X181325210Y-50956666D03*
X181325210Y-50456666D03*
X181325210Y-49956666D03*
X181325210Y-49456666D03*
X181325210Y-48956666D03*
X181325210Y-48456666D03*
D13*
X180640210Y-47771666D03*
X180140210Y-47771666D03*
X179640210Y-47771666D03*
X179140210Y-47771666D03*
X178640210Y-47771666D03*
X178140210Y-47771666D03*
X177640210Y-47771666D03*
X177140210Y-47771666D03*
X176640210Y-47771666D03*
X176140210Y-47771666D03*
X175640210Y-47771666D03*
X175140210Y-47771666D03*
D12*
X174455210Y-48456666D03*
X174455210Y-48956666D03*
X174455210Y-49456666D03*
X174455210Y-49956666D03*
X174455210Y-50456666D03*
X174455210Y-50956666D03*
X174455210Y-51456666D03*
X174455210Y-51956666D03*
X174455210Y-52456666D03*
X174455210Y-52956666D03*
X174455210Y-53456666D03*
X174455210Y-53956666D03*
D13*
X175140210Y-54641666D03*
X175640210Y-54641666D03*
X176140210Y-54641666D03*
X176640210Y-54641666D03*
X177140210Y-54641666D03*
X177640210Y-54641666D03*
X178140210Y-54641666D03*
X178640210Y-54641666D03*
X179140210Y-54641666D03*
X179640210Y-54641666D03*
X180140210Y-54641666D03*
X180640210Y-54641666D03*
%TD*%
D14*
%TO.C,C70*%
X170065210Y-49181666D03*
X171615210Y-49181666D03*
%TD*%
D15*
%TO.C,R78*%
X164580210Y-53446666D03*
X166230210Y-53446666D03*
%TD*%
D16*
%TO.C,R79*%
X169845210Y-58781666D03*
X169845210Y-60431666D03*
%TD*%
D11*
%TO.C,R80*%
X191275210Y-54101666D03*
X191275210Y-52451666D03*
%TD*%
D17*
%TO.C,C71*%
X175365210Y-59131666D03*
X175365210Y-57581666D03*
%TD*%
D18*
%TO.C,R73*%
X166330210Y-62886666D03*
X164680210Y-62886666D03*
%TD*%
D14*
%TO.C,C69*%
X170095210Y-47356666D03*
X171645210Y-47356666D03*
%TD*%
D19*
%TO.C,Y1*%
X180350210Y-62191666D03*
X178150210Y-62191666D03*
X178150210Y-63891666D03*
X180350210Y-63891666D03*
%TD*%
D20*
%TO.C,C73*%
X176060210Y-62176666D03*
X176060210Y-63726666D03*
%TD*%
D16*
%TO.C,R71*%
X174565210Y-67356666D03*
X174565210Y-69006666D03*
%TD*%
D11*
%TO.C,R72*%
X172935210Y-69001666D03*
X172935210Y-67351666D03*
%TD*%
D20*
%TO.C,C65*%
X180955210Y-43251666D03*
X180955210Y-44801666D03*
%TD*%
D16*
%TO.C,R69*%
X180445210Y-67226666D03*
X180445210Y-68876666D03*
%TD*%
D11*
%TO.C,R70*%
X178835210Y-68861666D03*
X178835210Y-67211666D03*
%TD*%
%TO.C,R82*%
X185415210Y-47471666D03*
X185415210Y-45821666D03*
%TD*%
D21*
%TO.C,D24*%
X186925210Y-56346666D03*
X186925210Y-59146666D03*
%TD*%
D15*
%TO.C,R76*%
X164635210Y-57596666D03*
X166285210Y-57596666D03*
%TD*%
D21*
%TO.C,D25*%
X187655210Y-45396666D03*
X187655210Y-48196666D03*
%TD*%
D18*
%TO.C,R77*%
X166220210Y-55066666D03*
X164570210Y-55066666D03*
%TD*%
D17*
%TO.C,C68*%
X180845210Y-58941666D03*
X180845210Y-57391666D03*
%TD*%
D15*
%TO.C,R74*%
X164705210Y-61236666D03*
X166355210Y-61236666D03*
%TD*%
D18*
%TO.C,R75*%
X166290210Y-59216666D03*
X164640210Y-59216666D03*
%TD*%
D22*
%TO.C,C67*%
X185680210Y-54006666D03*
X184130210Y-54006666D03*
%TD*%
D17*
%TO.C,C66*%
X177105210Y-59121666D03*
X177105210Y-57571666D03*
%TD*%
%TO.C,C72*%
X182440210Y-63751666D03*
X182440210Y-62201666D03*
%TD*%
D23*
%TO.C,U2*%
X63812500Y-46720000D03*
X61512500Y-46720000D03*
D24*
X61512500Y-40420000D03*
D23*
X59212500Y-46720000D03*
%TD*%
D25*
%TO.C,D24*%
X56767500Y-44330000D03*
X54667500Y-44330000D03*
%TD*%
D15*
%TO.C,R31*%
X67797500Y-68750000D03*
X66147500Y-68750000D03*
%TD*%
D26*
%TO.C,D6*%
X114690000Y-108250000D03*
X114690000Y-108900000D03*
X114690000Y-109550000D03*
X112810000Y-109550000D03*
X112810000Y-108250000D03*
%TD*%
D27*
%TO.C,BT1*%
X103245000Y-70340000D03*
%TD*%
D16*
%TO.C,R35*%
X62220000Y-68600000D03*
X62220000Y-66950000D03*
%TD*%
D17*
%TO.C,C3*%
X56860000Y-46320000D03*
X56860000Y-47870000D03*
%TD*%
D28*
%TO.C,D14*%
X66260000Y-67000000D03*
X67835000Y-67000000D03*
%TD*%
D29*
%TO.C,J7*%
X118912500Y-126475000D03*
X118912500Y-119275000D03*
X108712500Y-119275000D03*
X108712500Y-126475000D03*
D30*
X115632500Y-115350000D03*
X111992500Y-115350000D03*
D31*
X108912500Y-123625000D03*
X108912500Y-122425000D03*
X118712500Y-123625000D03*
X108912500Y-121225000D03*
X118712500Y-122425000D03*
X118712500Y-121225000D03*
%TD*%
D17*
%TO.C,C18*%
X106750000Y-123625000D03*
X106750000Y-125175000D03*
%TD*%
D20*
%TO.C,C9*%
X56880000Y-41545000D03*
X56880000Y-39995000D03*
%TD*%
D32*
%TO.C,J16*%
X68605000Y-73510000D03*
X67505000Y-73510000D03*
X66405000Y-73510000D03*
X65305000Y-73510000D03*
X64205000Y-73510000D03*
X63105000Y-73510000D03*
X62005000Y-73510000D03*
X60905000Y-73510000D03*
D33*
X70395000Y-85975000D03*
D34*
X66130000Y-86050000D03*
D35*
X72485000Y-73525000D03*
D36*
X59825000Y-74010000D03*
D37*
X72705000Y-84775000D03*
X59745000Y-84775000D03*
%TD*%
D20*
%TO.C,C29*%
X64030000Y-68615000D03*
X64030000Y-67065000D03*
%TD*%
M02*
