%TF.GenerationSoftware,KiCad,Pcbnew,9.0.6*%
%TF.CreationDate,2026-02-17T13:33:01+03:00*%
%TF.ProjectId,AWS PROJECT,41575320-5052-44f4-9a45-43542e6b6963,rev?*%
%TF.SameCoordinates,Original*%
%TF.FileFunction,Profile,NP*%
%FSLAX46Y46*%
G04 Gerber Fmt 4.6, Leading zero omitted, Abs format (unit mm)*
G04 Created by KiCad (PCBNEW 9.0.6) date 2026-02-17 13:33:01*
%MOMM*%
%LPD*%
G01*
G04 APERTURE LIST*
%TA.AperFunction,Profile*%
%ADD10C,0.050000*%
%TD*%
G04 APERTURE END LIST*
D10*
X138670000Y-123500000D02*
X139000000Y-123500000D01*
X138670001Y-119760000D02*
X139000001Y-119760000D01*
X138670002Y-104800000D02*
X139000003Y-104800000D01*
X138670003Y-101060000D02*
X139000004Y-101060000D01*
X139000006Y-93580000D02*
X138670005Y-93580000D01*
X139000007Y-89840000D02*
X138670006Y-89840000D01*
X139000009Y-82360000D02*
X138670008Y-82360000D01*
X138670009Y-78620000D02*
X139000010Y-78620000D01*
X139000003Y-71140000D02*
X138670003Y-71140000D01*
X139000004Y-67400000D02*
X138670003Y-67400000D01*
X139000006Y-59920000D02*
X138670006Y-59920000D01*
X138670006Y-56180000D02*
X139000007Y-56180000D01*
X138670000Y-45990000D02*
X139000000Y-45990000D01*
X138670000Y-42250000D02*
X139000000Y-42250000D01*
X138670001Y-119760000D02*
X138670002Y-104800000D01*
X139000003Y-104800000D02*
X139000001Y-119760000D01*
X138670000Y-45990000D02*
X138670006Y-56180000D01*
X139000000Y-45990000D02*
X139000007Y-56180000D01*
X138670006Y-59920000D02*
X138670003Y-67400000D01*
X139000006Y-59920000D02*
X139000004Y-67400000D01*
X138670003Y-71140000D02*
X138670009Y-78620000D01*
X139000003Y-71140000D02*
X139000010Y-78620000D01*
X138670008Y-82360000D02*
X138670006Y-89840000D01*
X139000009Y-82360000D02*
X139000007Y-89840000D01*
X138670005Y-93580000D02*
X138670003Y-101060000D01*
X139000006Y-93580000D02*
X139000004Y-101060000D01*
X237000000Y-37250000D02*
G75*
G02*
X242000000Y-42250000I0J-5000000D01*
G01*
X241999999Y-123500000D02*
X242000000Y-42250000D01*
X144000000Y-128500000D02*
X237000000Y-128500000D01*
X144000000Y-37250000D02*
X237000000Y-37250000D01*
X144000000Y-128500000D02*
G75*
G02*
X139000000Y-123500000I0J5000000D01*
G01*
X242000000Y-123500000D02*
G75*
G02*
X237000000Y-128500000I-5000000J0D01*
G01*
X139000000Y-42250000D02*
G75*
G02*
X144000000Y-37250000I5000000J0D01*
G01*
X133670000Y-128500000D02*
X40670000Y-128500000D01*
X40670000Y-128500000D02*
G75*
G02*
X35670000Y-123500000I0J5000000D01*
G01*
X35670000Y-42250000D02*
X35670000Y-123500000D01*
X133670000Y-37250000D02*
G75*
G02*
X138670000Y-42250000I0J-5000000D01*
G01*
X35670000Y-42250000D02*
G75*
G02*
X40670000Y-37250000I5000000J0D01*
G01*
X138670000Y-123500000D02*
G75*
G02*
X133670000Y-128500000I-5000000J0D01*
G01*
X133670000Y-37250000D02*
X40670000Y-37250000D01*
M02*
