%TF.GenerationSoftware,KiCad,Pcbnew,9.0.6*%
%TF.CreationDate,2026-02-17T13:33:00+03:00*%
%TF.ProjectId,AWS PROJECT,41575320-5052-44f4-9a45-43542e6b6963,rev?*%
%TF.SameCoordinates,Original*%
%TF.FileFunction,Soldermask,Top*%
%TF.FilePolarity,Negative*%
%FSLAX46Y46*%
G04 Gerber Fmt 4.6, Leading zero omitted, Abs format (unit mm)*
G04 Created by KiCad (PCBNEW 9.0.6) date 2026-02-17 13:33:00*
%MOMM*%
%LPD*%
G01*
G04 APERTURE LIST*
G04 Aperture macros list*
%AMRoundRect*
0 Rectangle with rounded corners*
0 $1 Rounding radius*
0 $2 $3 $4 $5 $6 $7 $8 $9 X,Y pos of 4 corners*
0 Add a 4 corners polygon primitive as box body*
4,1,4,$2,$3,$4,$5,$6,$7,$8,$9,$2,$3,0*
0 Add four circle primitives for the rounded corners*
1,1,$1+$1,$2,$3*
1,1,$1+$1,$4,$5*
1,1,$1+$1,$6,$7*
1,1,$1+$1,$8,$9*
0 Add four rect primitives between the rounded corners*
20,1,$1+$1,$2,$3,$4,$5,0*
20,1,$1+$1,$4,$5,$6,$7,0*
20,1,$1+$1,$6,$7,$8,$9,0*
20,1,$1+$1,$8,$9,$2,$3,0*%
%AMOutline4P*
0 Free polygon, 4 corners , with rotation*
0 The origin of the aperture is its center*
0 number of corners: always 4*
0 $1 to $8 corner X, Y*
0 $9 Rotation angle, in degrees counterclockwise*
0 create outline with 4 corners*
4,1,4,$1,$2,$3,$4,$5,$6,$7,$8,$1,$2,$9*%
%AMFreePoly0*
4,1,23,0.000000,0.745722,0.065263,0.745722,0.191342,0.711940,0.304381,0.646677,0.396677,0.554381,0.461940,0.441342,0.495722,0.315263,0.495722,0.250000,0.500000,0.250000,0.500000,-0.250000,0.495722,-0.250000,0.495722,-0.315263,0.461940,-0.441342,0.396677,-0.554381,0.304381,-0.646677,0.191342,-0.711940,0.065263,-0.745722,0.000000,-0.745722,0.000000,-0.750000,-0.500000,-0.750000,
-0.500000,0.750000,0.000000,0.750000,0.000000,0.745722,0.000000,0.745722,$1*%
%AMFreePoly1*
4,1,23,0.500000,-0.750000,0.000000,-0.750000,0.000000,-0.745722,-0.065263,-0.745722,-0.191342,-0.711940,-0.304381,-0.646677,-0.396677,-0.554381,-0.461940,-0.441342,-0.495722,-0.315263,-0.495722,-0.250000,-0.500000,-0.250000,-0.500000,0.250000,-0.495722,0.250000,-0.495722,0.315263,-0.461940,0.441342,-0.396677,0.554381,-0.304381,0.646677,-0.191342,0.711940,-0.065263,0.745722,0.000000,0.745722,
0.000000,0.750000,0.500000,0.750000,0.500000,-0.750000,0.500000,-0.750000,$1*%
G04 Aperture macros list end*
%ADD10C,0.010000*%
%ADD11C,1.600000*%
%ADD12RoundRect,0.250000X-0.550000X0.550000X-0.550000X-0.550000X0.550000X-0.550000X0.550000X0.550000X0*%
%ADD13RoundRect,0.102000X-1.070000X1.070000X-1.070000X-1.070000X1.070000X-1.070000X1.070000X1.070000X0*%
%ADD14RoundRect,0.058000X-0.474000X0.174000X-0.474000X-0.174000X0.474000X-0.174000X0.474000X0.174000X0*%
%ADD15RoundRect,0.058000X-0.174000X0.474000X-0.174000X-0.474000X0.174000X-0.474000X0.174000X0.474000X0*%
%ADD16RoundRect,0.200000X0.275000X-0.200000X0.275000X0.200000X-0.275000X0.200000X-0.275000X-0.200000X0*%
%ADD17FreePoly0,270.000000*%
%ADD18FreePoly1,270.000000*%
%ADD19FreePoly0,90.000000*%
%ADD20FreePoly1,90.000000*%
%ADD21FreePoly0,180.000000*%
%ADD22FreePoly1,180.000000*%
%ADD23RoundRect,0.225000X-0.250000X0.225000X-0.250000X-0.225000X0.250000X-0.225000X0.250000X0.225000X0*%
%ADD24RoundRect,0.237500X-0.300000X-0.237500X0.300000X-0.237500X0.300000X0.237500X-0.300000X0.237500X0*%
%ADD25RoundRect,0.250000X0.412500X0.650000X-0.412500X0.650000X-0.412500X-0.650000X0.412500X-0.650000X0*%
%ADD26RoundRect,0.360000X-0.840000X-0.840000X0.840000X-0.840000X0.840000X0.840000X-0.840000X0.840000X0*%
%ADD27RoundRect,0.450000X-1.050000X-1.050000X1.050000X-1.050000X1.050000X1.050000X-1.050000X1.050000X0*%
%ADD28RoundRect,0.200000X-0.200000X-0.275000X0.200000X-0.275000X0.200000X0.275000X-0.200000X0.275000X0*%
%ADD29RoundRect,0.237500X-0.237500X0.300000X-0.237500X-0.300000X0.237500X-0.300000X0.237500X0.300000X0*%
%ADD30C,6.400000*%
%ADD31RoundRect,0.250000X-0.550000X1.250000X-0.550000X-1.250000X0.550000X-1.250000X0.550000X1.250000X0*%
%ADD32RoundRect,0.200000X0.200000X0.275000X-0.200000X0.275000X-0.200000X-0.275000X0.200000X-0.275000X0*%
%ADD33R,2.350000X5.100000*%
%ADD34RoundRect,0.237500X0.237500X-0.300000X0.237500X0.300000X-0.237500X0.300000X-0.237500X-0.300000X0*%
%ADD35RoundRect,0.125000X-0.125000X0.125000X-0.125000X-0.125000X0.125000X-0.125000X0.125000X0.125000X0*%
%ADD36RoundRect,0.237500X0.300000X0.237500X-0.300000X0.237500X-0.300000X-0.237500X0.300000X-0.237500X0*%
%ADD37R,1.000000X1.500000*%
%ADD38RoundRect,0.237500X0.237500X-0.250000X0.237500X0.250000X-0.237500X0.250000X-0.237500X-0.250000X0*%
%ADD39C,1.712000*%
%ADD40RoundRect,0.102000X0.754000X0.754000X-0.754000X0.754000X-0.754000X-0.754000X0.754000X-0.754000X0*%
%ADD41RoundRect,0.250000X-0.650000X0.412500X-0.650000X-0.412500X0.650000X-0.412500X0.650000X0.412500X0*%
%ADD42RoundRect,0.237500X-0.250000X-0.237500X0.250000X-0.237500X0.250000X0.237500X-0.250000X0.237500X0*%
%ADD43RoundRect,0.237500X0.250000X0.237500X-0.250000X0.237500X-0.250000X-0.237500X0.250000X-0.237500X0*%
%ADD44RoundRect,0.200000X-0.275000X0.200000X-0.275000X-0.200000X0.275000X-0.200000X0.275000X0.200000X0*%
%ADD45C,0.800000*%
%ADD46RoundRect,0.250000X-0.312500X-1.450000X0.312500X-1.450000X0.312500X1.450000X-0.312500X1.450000X0*%
%ADD47Outline4P,-2.150000X-1.800000X2.150000X-0.800000X2.150000X0.800000X-2.150000X1.800000X90.000000*%
%ADD48Outline4P,-2.150000X-1.800000X2.150000X-0.800000X2.150000X0.800000X-2.150000X1.800000X270.000000*%
%ADD49RoundRect,0.218750X0.218750X0.256250X-0.218750X0.256250X-0.218750X-0.256250X0.218750X-0.256250X0*%
%ADD50RoundRect,0.375000X-0.375000X0.625000X-0.375000X-0.625000X0.375000X-0.625000X0.375000X0.625000X0*%
%ADD51RoundRect,0.500000X-1.400000X0.500000X-1.400000X-0.500000X1.400000X-0.500000X1.400000X0.500000X0*%
%ADD52C,2.800000*%
%ADD53RoundRect,0.250001X-1.149999X1.149999X-1.149999X-1.149999X1.149999X-1.149999X1.149999X1.149999X0*%
%ADD54RoundRect,0.102000X0.375000X-0.500000X0.375000X0.500000X-0.375000X0.500000X-0.375000X-0.500000X0*%
%ADD55RoundRect,0.225000X-0.225000X-0.250000X0.225000X-0.250000X0.225000X0.250000X-0.225000X0.250000X0*%
%ADD56RoundRect,0.250001X-1.149999X-1.149999X1.149999X-1.149999X1.149999X1.149999X-1.149999X1.149999X0*%
%ADD57FreePoly0,0.000000*%
%ADD58FreePoly1,0.000000*%
%ADD59RoundRect,0.102000X0.500000X0.375000X-0.500000X0.375000X-0.500000X-0.375000X0.500000X-0.375000X0*%
%ADD60Outline4P,-2.150000X-1.800000X2.150000X-0.800000X2.150000X0.800000X-2.150000X1.800000X0.000000*%
%ADD61Outline4P,-2.150000X-1.800000X2.150000X-0.800000X2.150000X0.800000X-2.150000X1.800000X180.000000*%
%ADD62RoundRect,0.150000X-0.590000X-0.150000X0.590000X-0.150000X0.590000X0.150000X-0.590000X0.150000X0*%
%ADD63RoundRect,0.150000X0.150000X-0.590000X0.150000X0.590000X-0.150000X0.590000X-0.150000X-0.590000X0*%
%ADD64RoundRect,0.237500X-0.237500X0.250000X-0.237500X-0.250000X0.237500X-0.250000X0.237500X0.250000X0*%
%ADD65RoundRect,0.250000X-0.412500X-1.100000X0.412500X-1.100000X0.412500X1.100000X-0.412500X1.100000X0*%
%ADD66R,1.000000X1.000000*%
%ADD67RoundRect,0.250000X-1.450000X0.312500X-1.450000X-0.312500X1.450000X-0.312500X1.450000X0.312500X0*%
%ADD68C,1.700000*%
%ADD69R,1.700000X1.700000*%
%ADD70RoundRect,0.102000X-1.205000X-1.538000X1.205000X-1.538000X1.205000X1.538000X-1.205000X1.538000X0*%
%ADD71RoundRect,0.201000X-0.886000X-0.201000X0.886000X-0.201000X0.886000X0.201000X-0.886000X0.201000X0*%
%ADD72C,1.779000*%
%ADD73RoundRect,0.102000X0.787500X0.787500X-0.787500X0.787500X-0.787500X-0.787500X0.787500X-0.787500X0*%
%ADD74RoundRect,0.125000X0.125000X0.125000X-0.125000X0.125000X-0.125000X-0.125000X0.125000X-0.125000X0*%
%ADD75C,1.500000*%
%ADD76RoundRect,0.225000X0.225000X0.250000X-0.225000X0.250000X-0.225000X-0.250000X0.225000X-0.250000X0*%
%ADD77RoundRect,0.011100X0.390900X-0.210900X0.390900X0.210900X-0.390900X0.210900X-0.390900X-0.210900X0*%
%ADD78RoundRect,0.011100X0.210900X-0.390900X0.210900X0.390900X-0.210900X0.390900X-0.210900X-0.390900X0*%
%ADD79RoundRect,0.102000X1.525000X-1.025000X1.525000X1.025000X-1.525000X1.025000X-1.525000X-1.025000X0*%
%ADD80RoundRect,0.100000X-0.400000X-0.400000X0.400000X-0.400000X0.400000X0.400000X-0.400000X0.400000X0*%
%ADD81RoundRect,0.105000X-0.420000X-0.995000X0.420000X-0.995000X0.420000X0.995000X-0.420000X0.995000X0*%
%ADD82RoundRect,0.102000X0.754000X-0.754000X0.754000X0.754000X-0.754000X0.754000X-0.754000X-0.754000X0*%
%ADD83RoundRect,0.125000X-0.125000X-0.125000X0.125000X-0.125000X0.125000X0.125000X-0.125000X0.125000X0*%
%ADD84RoundRect,0.218750X0.256250X-0.218750X0.256250X0.218750X-0.256250X0.218750X-0.256250X-0.218750X0*%
%ADD85RoundRect,0.250000X0.650000X-0.412500X0.650000X0.412500X-0.650000X0.412500X-0.650000X-0.412500X0*%
%ADD86RoundRect,0.102000X-0.754000X-0.754000X0.754000X-0.754000X0.754000X0.754000X-0.754000X0.754000X0*%
%ADD87RoundRect,0.112500X-0.112500X0.187500X-0.112500X-0.187500X0.112500X-0.187500X0.112500X0.187500X0*%
%ADD88O,0.804000X2.204000*%
%ADD89O,2.204000X0.804000*%
%ADD90RoundRect,0.102000X0.711200X0.266700X-0.711200X0.266700X-0.711200X-0.266700X0.711200X-0.266700X0*%
%ADD91RoundRect,0.102000X-0.754000X0.754000X-0.754000X-0.754000X0.754000X-0.754000X0.754000X0.754000X0*%
%ADD92RoundRect,0.375000X-0.625000X-0.375000X0.625000X-0.375000X0.625000X0.375000X-0.625000X0.375000X0*%
%ADD93RoundRect,0.500000X-0.500000X-1.400000X0.500000X-1.400000X0.500000X1.400000X-0.500000X1.400000X0*%
%ADD94R,0.900000X2.400000*%
%ADD95RoundRect,0.102000X0.787500X-0.787500X0.787500X0.787500X-0.787500X0.787500X-0.787500X-0.787500X0*%
%ADD96RoundRect,0.375000X0.375000X-0.625000X0.375000X0.625000X-0.375000X0.625000X-0.375000X-0.625000X0*%
%ADD97RoundRect,0.500000X1.400000X-0.500000X1.400000X0.500000X-1.400000X0.500000X-1.400000X-0.500000X0*%
%ADD98RoundRect,0.102000X-0.200000X0.190000X-0.200000X-0.190000X0.200000X-0.190000X0.200000X0.190000X0*%
%ADD99RoundRect,0.112500X-0.187500X-0.112500X0.187500X-0.112500X0.187500X0.112500X-0.187500X0.112500X0*%
%ADD100RoundRect,0.102000X-0.750000X-0.200000X0.750000X-0.200000X0.750000X0.200000X-0.750000X0.200000X0*%
%ADD101RoundRect,0.225000X0.250000X-0.225000X0.250000X0.225000X-0.250000X0.225000X-0.250000X-0.225000X0*%
%ADD102RoundRect,0.218750X-0.218750X-0.256250X0.218750X-0.256250X0.218750X0.256250X-0.218750X0.256250X0*%
%ADD103RoundRect,0.102000X-0.787500X-0.787500X0.787500X-0.787500X0.787500X0.787500X-0.787500X0.787500X0*%
%ADD104RoundRect,0.112500X0.187500X0.112500X-0.187500X0.112500X-0.187500X-0.112500X0.187500X-0.112500X0*%
%ADD105RoundRect,0.150000X0.150000X-0.587500X0.150000X0.587500X-0.150000X0.587500X-0.150000X-0.587500X0*%
%ADD106RoundRect,0.100000X0.400000X-0.400000X0.400000X0.400000X-0.400000X0.400000X-0.400000X-0.400000X0*%
%ADD107RoundRect,0.105000X0.995000X-0.420000X0.995000X0.420000X-0.995000X0.420000X-0.995000X-0.420000X0*%
%ADD108RoundRect,0.250000X-0.412500X-0.650000X0.412500X-0.650000X0.412500X0.650000X-0.412500X0.650000X0*%
%ADD109C,0.600000*%
%ADD110O,1.104000X2.204000*%
%ADD111O,1.104000X1.904000*%
%ADD112RoundRect,0.102000X-0.787500X0.787500X-0.787500X-0.787500X0.787500X-0.787500X0.787500X0.787500X0*%
%ADD113RoundRect,0.150000X-0.150000X0.587500X-0.150000X-0.587500X0.150000X-0.587500X0.150000X0.587500X0*%
%ADD114RoundRect,0.099250X0.297750X-0.987750X0.297750X0.987750X-0.297750X0.987750X-0.297750X-0.987750X0*%
%ADD115RoundRect,0.102000X-0.750000X-0.450000X0.750000X-0.450000X0.750000X0.450000X-0.750000X0.450000X0*%
%ADD116RoundRect,0.102000X-0.450000X-0.750000X0.450000X-0.750000X0.450000X0.750000X-0.450000X0.750000X0*%
%ADD117RoundRect,0.102000X-0.450000X-0.450000X0.450000X-0.450000X0.450000X0.450000X-0.450000X0.450000X0*%
%ADD118C,0.504000*%
%ADD119RoundRect,0.102000X1.525000X1.525000X-1.525000X1.525000X-1.525000X-1.525000X1.525000X-1.525000X0*%
%ADD120C,3.254000*%
G04 APERTURE END LIST*
%TO.C,JP11*%
G36*
X179505210Y-74786666D02*
G01*
X178005210Y-74786666D01*
X178005210Y-75086666D01*
X179505210Y-75086666D01*
X179505210Y-74786666D01*
G37*
%TO.C,JP18*%
G36*
X214950000Y-85940000D02*
G01*
X216450000Y-85940000D01*
X216450000Y-85640000D01*
X214950000Y-85640000D01*
X214950000Y-85940000D01*
G37*
%TO.C,JP24*%
G36*
X231645210Y-58466666D02*
G01*
X231345210Y-58466666D01*
X231345210Y-56966666D01*
X231645210Y-56966666D01*
X231645210Y-58466666D01*
G37*
%TO.C,JP23*%
G36*
X221900000Y-65500000D02*
G01*
X221600000Y-65500000D01*
X221600000Y-64000000D01*
X221900000Y-64000000D01*
X221900000Y-65500000D01*
G37*
%TO.C,JP20*%
G36*
X217700000Y-86040000D02*
G01*
X219200000Y-86040000D01*
X219200000Y-85740000D01*
X217700000Y-85740000D01*
X217700000Y-86040000D01*
G37*
%TO.C,JP19*%
G36*
X225100000Y-101250000D02*
G01*
X225400000Y-101250000D01*
X225400000Y-102750000D01*
X225100000Y-102750000D01*
X225100000Y-101250000D01*
G37*
G36*
X198740000Y-84450000D02*
G01*
X199040000Y-84450000D01*
X199040000Y-85950000D01*
X198740000Y-85950000D01*
X198740000Y-84450000D01*
G37*
G36*
X177505210Y-74786666D02*
G01*
X176005210Y-74786666D01*
X176005210Y-75086666D01*
X177505210Y-75086666D01*
X177505210Y-74786666D01*
G37*
%TO.C,JP21*%
G36*
X225100000Y-98500000D02*
G01*
X225400000Y-98500000D01*
X225400000Y-100000000D01*
X225100000Y-100000000D01*
X225100000Y-98500000D01*
G37*
%TO.C,JP9*%
G36*
X221900000Y-67750000D02*
G01*
X221600000Y-67750000D01*
X221600000Y-66250000D01*
X221900000Y-66250000D01*
X221900000Y-67750000D01*
G37*
D10*
%TO.C,Q6*%
X186460000Y-98742500D02*
X189320000Y-98742500D01*
X189320000Y-98267500D01*
X190270000Y-98267500D01*
X190270000Y-101467500D01*
X190765000Y-101467500D01*
X190765000Y-102572500D01*
X190270000Y-102572500D01*
X190270000Y-102997500D01*
X185510000Y-102997500D01*
X185510000Y-102572500D01*
X185015000Y-102572500D01*
X185015000Y-101467500D01*
X185510000Y-101467500D01*
X185510000Y-98267500D01*
X186460000Y-98267500D01*
X186460000Y-98742500D01*
G36*
X186460000Y-98742500D02*
G01*
X189320000Y-98742500D01*
X189320000Y-98267500D01*
X190270000Y-98267500D01*
X190270000Y-101467500D01*
X190765000Y-101467500D01*
X190765000Y-102572500D01*
X190270000Y-102572500D01*
X190270000Y-102997500D01*
X185510000Y-102997500D01*
X185510000Y-102572500D01*
X185015000Y-102572500D01*
X185015000Y-101467500D01*
X185510000Y-101467500D01*
X185510000Y-98267500D01*
X186460000Y-98267500D01*
X186460000Y-98742500D01*
G37*
%TO.C,JP21*%
G36*
X231605210Y-60436666D02*
G01*
X231305210Y-60436666D01*
X231305210Y-58936666D01*
X231605210Y-58936666D01*
X231605210Y-60436666D01*
G37*
%TO.C,JP22*%
G36*
X207850000Y-62250000D02*
G01*
X208150000Y-62250000D01*
X208150000Y-63750000D01*
X207850000Y-63750000D01*
X207850000Y-62250000D01*
G37*
%TO.C,Q5*%
X183457500Y-87120000D02*
X183882500Y-87120000D01*
X183882500Y-91880000D01*
X183457500Y-91880000D01*
X183457500Y-92375000D01*
X182352500Y-92375000D01*
X182352500Y-91880000D01*
X179152500Y-91880000D01*
X179152500Y-90930000D01*
X179627500Y-90930000D01*
X179627500Y-88070000D01*
X179152500Y-88070000D01*
X179152500Y-87120000D01*
X182352500Y-87120000D01*
X182352500Y-86625000D01*
X183457500Y-86625000D01*
X183457500Y-87120000D01*
G36*
X183457500Y-87120000D02*
G01*
X183882500Y-87120000D01*
X183882500Y-91880000D01*
X183457500Y-91880000D01*
X183457500Y-92375000D01*
X182352500Y-92375000D01*
X182352500Y-91880000D01*
X179152500Y-91880000D01*
X179152500Y-90930000D01*
X179627500Y-90930000D01*
X179627500Y-88070000D01*
X179152500Y-88070000D01*
X179152500Y-87120000D01*
X182352500Y-87120000D01*
X182352500Y-86625000D01*
X183457500Y-86625000D01*
X183457500Y-87120000D01*
G37*
%TO.C,JP12*%
G36*
X207850000Y-60000000D02*
G01*
X208150000Y-60000000D01*
X208150000Y-61500000D01*
X207850000Y-61500000D01*
X207850000Y-60000000D01*
G37*
%TO.C,JP13*%
G36*
X155750000Y-89100000D02*
G01*
X154250000Y-89100000D01*
X154250000Y-89400000D01*
X155750000Y-89400000D01*
X155750000Y-89100000D01*
G37*
%TO.C,JP18*%
G36*
X153750000Y-89100000D02*
G01*
X152250000Y-89100000D01*
X152250000Y-89400000D01*
X153750000Y-89400000D01*
X153750000Y-89100000D01*
G37*
%TO.C,U15*%
X149675000Y-86700000D02*
X148525000Y-86700000D01*
X148525000Y-86200000D01*
X149675000Y-86200000D01*
X149675000Y-86700000D01*
G36*
X149675000Y-86700000D02*
G01*
X148525000Y-86700000D01*
X148525000Y-86200000D01*
X149675000Y-86200000D01*
X149675000Y-86700000D01*
G37*
X149675000Y-86000000D02*
X148525000Y-86000000D01*
X148525000Y-85500000D01*
X149675000Y-85500000D01*
X149675000Y-86000000D01*
G36*
X149675000Y-86000000D02*
G01*
X148525000Y-86000000D01*
X148525000Y-85500000D01*
X149675000Y-85500000D01*
X149675000Y-86000000D01*
G37*
X149325000Y-87600000D02*
X149025000Y-87600000D01*
X149025000Y-86900000D01*
X149325000Y-86900000D01*
X149325000Y-87600000D01*
G36*
X149325000Y-87600000D02*
G01*
X149025000Y-87600000D01*
X149025000Y-86900000D01*
X149325000Y-86900000D01*
X149325000Y-87600000D01*
G37*
X149325000Y-85300000D02*
X149025000Y-85300000D01*
X149025000Y-84600000D01*
X149325000Y-84600000D01*
X149325000Y-85300000D01*
G36*
X149325000Y-85300000D02*
G01*
X149025000Y-85300000D01*
X149025000Y-84600000D01*
X149325000Y-84600000D01*
X149325000Y-85300000D01*
G37*
X148825000Y-87600000D02*
X148525000Y-87600000D01*
X148525000Y-86900000D01*
X148825000Y-86900000D01*
X148825000Y-87600000D01*
G36*
X148825000Y-87600000D02*
G01*
X148525000Y-87600000D01*
X148525000Y-86900000D01*
X148825000Y-86900000D01*
X148825000Y-87600000D01*
G37*
X148825000Y-85300000D02*
X148525000Y-85300000D01*
X148525000Y-84600000D01*
X148825000Y-84600000D01*
X148825000Y-85300000D01*
G36*
X148825000Y-85300000D02*
G01*
X148525000Y-85300000D01*
X148525000Y-84600000D01*
X148825000Y-84600000D01*
X148825000Y-85300000D01*
G37*
X148325000Y-87600000D02*
X148025000Y-87600000D01*
X148025000Y-86900000D01*
X148325000Y-86900000D01*
X148325000Y-87600000D01*
G36*
X148325000Y-87600000D02*
G01*
X148025000Y-87600000D01*
X148025000Y-86900000D01*
X148325000Y-86900000D01*
X148325000Y-87600000D01*
G37*
X148325000Y-86700000D02*
X147175000Y-86700000D01*
X147175000Y-86200000D01*
X148325000Y-86200000D01*
X148325000Y-86700000D01*
G36*
X148325000Y-86700000D02*
G01*
X147175000Y-86700000D01*
X147175000Y-86200000D01*
X148325000Y-86200000D01*
X148325000Y-86700000D01*
G37*
X148325000Y-86000000D02*
X147175000Y-86000000D01*
X147175000Y-85500000D01*
X148325000Y-85500000D01*
X148325000Y-86000000D01*
G36*
X148325000Y-86000000D02*
G01*
X147175000Y-86000000D01*
X147175000Y-85500000D01*
X148325000Y-85500000D01*
X148325000Y-86000000D01*
G37*
X148325000Y-85300000D02*
X148025000Y-85300000D01*
X148025000Y-84600000D01*
X148325000Y-84600000D01*
X148325000Y-85300000D01*
G36*
X148325000Y-85300000D02*
G01*
X148025000Y-85300000D01*
X148025000Y-84600000D01*
X148325000Y-84600000D01*
X148325000Y-85300000D01*
G37*
X147825000Y-87600000D02*
X147525000Y-87600000D01*
X147525000Y-86900000D01*
X147825000Y-86900000D01*
X147825000Y-87600000D01*
G36*
X147825000Y-87600000D02*
G01*
X147525000Y-87600000D01*
X147525000Y-86900000D01*
X147825000Y-86900000D01*
X147825000Y-87600000D01*
G37*
X147825000Y-85300000D02*
X147525000Y-85300000D01*
X147525000Y-84600000D01*
X147825000Y-84600000D01*
X147825000Y-85300000D01*
G36*
X147825000Y-85300000D02*
G01*
X147525000Y-85300000D01*
X147525000Y-84600000D01*
X147825000Y-84600000D01*
X147825000Y-85300000D01*
G37*
%TO.C,JP3*%
G36*
X119550000Y-121390000D02*
G01*
X119850000Y-121390000D01*
X119850000Y-122890000D01*
X119550000Y-122890000D01*
X119550000Y-121390000D01*
G37*
%TO.C,JP10*%
G36*
X84350000Y-77440000D02*
G01*
X84650000Y-77440000D01*
X84650000Y-78940000D01*
X84350000Y-78940000D01*
X84350000Y-77440000D01*
G37*
%TO.C,JP16*%
G36*
X96580000Y-41422500D02*
G01*
X98080000Y-41422500D01*
X98080000Y-41122500D01*
X96580000Y-41122500D01*
X96580000Y-41422500D01*
G37*
%TO.C,JP13*%
G36*
X53090000Y-102080000D02*
G01*
X52790000Y-102080000D01*
X52790000Y-100580000D01*
X53090000Y-100580000D01*
X53090000Y-102080000D01*
G37*
%TO.C,JP17*%
G36*
X104740000Y-62750000D02*
G01*
X105040000Y-62750000D01*
X105040000Y-64250000D01*
X104740000Y-64250000D01*
X104740000Y-62750000D01*
G37*
%TO.C,JP14*%
G36*
X59890000Y-84840000D02*
G01*
X60190000Y-84840000D01*
X60190000Y-86340000D01*
X59890000Y-86340000D01*
X59890000Y-84840000D01*
G37*
%TO.C,JP15*%
G36*
X114990000Y-49120000D02*
G01*
X116490000Y-49120000D01*
X116490000Y-48820000D01*
X114990000Y-48820000D01*
X114990000Y-49120000D01*
G37*
%TO.C,JP6*%
G36*
X125840000Y-115380000D02*
G01*
X126140000Y-115380000D01*
X126140000Y-116880000D01*
X125840000Y-116880000D01*
X125840000Y-115380000D01*
G37*
%TO.C,JP8*%
G36*
X62220000Y-86200000D02*
G01*
X63720000Y-86200000D01*
X63720000Y-85900000D01*
X62220000Y-85900000D01*
X62220000Y-86200000D01*
G37*
%TO.C,JP1*%
G36*
X97940000Y-125100000D02*
G01*
X97640000Y-125100000D01*
X97640000Y-123600000D01*
X97940000Y-123600000D01*
X97940000Y-125100000D01*
G37*
%TO.C,J24*%
X116950000Y-44697500D02*
X116250000Y-44697500D01*
X116250000Y-43457500D01*
X116950000Y-43457500D01*
X116950000Y-44697500D01*
G36*
X116950000Y-44697500D02*
G01*
X116250000Y-44697500D01*
X116250000Y-43457500D01*
X116950000Y-43457500D01*
X116950000Y-44697500D01*
G37*
X117750000Y-44697500D02*
X117050000Y-44697500D01*
X117050000Y-43457500D01*
X117750000Y-43457500D01*
X117750000Y-44697500D01*
G36*
X117750000Y-44697500D02*
G01*
X117050000Y-44697500D01*
X117050000Y-43457500D01*
X117750000Y-43457500D01*
X117750000Y-44697500D01*
G37*
X118250000Y-44697500D02*
X117850000Y-44697500D01*
X117850000Y-43457500D01*
X118250000Y-43457500D01*
X118250000Y-44697500D01*
G36*
X118250000Y-44697500D02*
G01*
X117850000Y-44697500D01*
X117850000Y-43457500D01*
X118250000Y-43457500D01*
X118250000Y-44697500D01*
G37*
X118750000Y-44697500D02*
X118350000Y-44697500D01*
X118350000Y-43457500D01*
X118750000Y-43457500D01*
X118750000Y-44697500D01*
G36*
X118750000Y-44697500D02*
G01*
X118350000Y-44697500D01*
X118350000Y-43457500D01*
X118750000Y-43457500D01*
X118750000Y-44697500D01*
G37*
X119250000Y-44697500D02*
X118850000Y-44697500D01*
X118850000Y-43457500D01*
X119250000Y-43457500D01*
X119250000Y-44697500D01*
G36*
X119250000Y-44697500D02*
G01*
X118850000Y-44697500D01*
X118850000Y-43457500D01*
X119250000Y-43457500D01*
X119250000Y-44697500D01*
G37*
X119750000Y-44697500D02*
X119350000Y-44697500D01*
X119350000Y-43457500D01*
X119750000Y-43457500D01*
X119750000Y-44697500D01*
G36*
X119750000Y-44697500D02*
G01*
X119350000Y-44697500D01*
X119350000Y-43457500D01*
X119750000Y-43457500D01*
X119750000Y-44697500D01*
G37*
X120250000Y-44697500D02*
X119850000Y-44697500D01*
X119850000Y-43457500D01*
X120250000Y-43457500D01*
X120250000Y-44697500D01*
G36*
X120250000Y-44697500D02*
G01*
X119850000Y-44697500D01*
X119850000Y-43457500D01*
X120250000Y-43457500D01*
X120250000Y-44697500D01*
G37*
X120750000Y-44697500D02*
X120350000Y-44697500D01*
X120350000Y-43457500D01*
X120750000Y-43457500D01*
X120750000Y-44697500D01*
G36*
X120750000Y-44697500D02*
G01*
X120350000Y-44697500D01*
X120350000Y-43457500D01*
X120750000Y-43457500D01*
X120750000Y-44697500D01*
G37*
X121250000Y-44697500D02*
X120850000Y-44697500D01*
X120850000Y-43457500D01*
X121250000Y-43457500D01*
X121250000Y-44697500D01*
G36*
X121250000Y-44697500D02*
G01*
X120850000Y-44697500D01*
X120850000Y-43457500D01*
X121250000Y-43457500D01*
X121250000Y-44697500D01*
G37*
X121750000Y-44697500D02*
X121350000Y-44697500D01*
X121350000Y-43457500D01*
X121750000Y-43457500D01*
X121750000Y-44697500D01*
G36*
X121750000Y-44697500D02*
G01*
X121350000Y-44697500D01*
X121350000Y-43457500D01*
X121750000Y-43457500D01*
X121750000Y-44697500D01*
G37*
X122550000Y-44697500D02*
X121850000Y-44697500D01*
X121850000Y-43457500D01*
X122550000Y-43457500D01*
X122550000Y-44697500D01*
G36*
X122550000Y-44697500D02*
G01*
X121850000Y-44697500D01*
X121850000Y-43457500D01*
X122550000Y-43457500D01*
X122550000Y-44697500D01*
G37*
X123350000Y-44697500D02*
X122650000Y-44697500D01*
X122650000Y-43457500D01*
X123350000Y-43457500D01*
X123350000Y-44697500D01*
G36*
X123350000Y-44697500D02*
G01*
X122650000Y-44697500D01*
X122650000Y-43457500D01*
X123350000Y-43457500D01*
X123350000Y-44697500D01*
G37*
%TO.C,JP11*%
G36*
X80914000Y-48845000D02*
G01*
X82414000Y-48845000D01*
X82414000Y-48545000D01*
X80914000Y-48545000D01*
X80914000Y-48845000D01*
G37*
%TO.C,JP5*%
G36*
X50510000Y-43340000D02*
G01*
X52010000Y-43340000D01*
X52010000Y-43040000D01*
X50510000Y-43040000D01*
X50510000Y-43340000D01*
G37*
%TD*%
D11*
%TO.C,SW2*%
X158987500Y-71352500D03*
D12*
X158987500Y-63732500D03*
%TD*%
D13*
%TO.C,U14*%
X167387500Y-105315000D03*
D14*
X169072500Y-104565000D03*
X169072500Y-105065000D03*
X169072500Y-105565000D03*
X169072500Y-106065000D03*
D15*
X168137500Y-107000000D03*
X167637500Y-107000000D03*
X167137500Y-107000000D03*
X166637500Y-107000000D03*
D14*
X165702500Y-106065000D03*
X165702500Y-105565000D03*
X165702500Y-105065000D03*
X165702500Y-104565000D03*
D15*
X166637500Y-103630000D03*
X167137500Y-103630000D03*
X167637500Y-103630000D03*
X168137500Y-103630000D03*
%TD*%
D16*
%TO.C,R50*%
X165637500Y-96165000D03*
X165637500Y-97815000D03*
%TD*%
D17*
%TO.C,JP11*%
X178755210Y-75586666D03*
D18*
X178755210Y-74286666D03*
%TD*%
D19*
%TO.C,JP18*%
X215700000Y-85140000D03*
D20*
X215700000Y-86440000D03*
%TD*%
D21*
%TO.C,JP24*%
X230845210Y-57716666D03*
D22*
X232145210Y-57716666D03*
%TD*%
D23*
%TO.C,C58*%
X202025000Y-73847500D03*
X202025000Y-72297500D03*
%TD*%
D24*
%TO.C,C43*%
X176750000Y-107000000D03*
X175025000Y-107000000D03*
%TD*%
D25*
%TO.C,C45*%
X190900000Y-65910000D03*
X194025000Y-65910000D03*
%TD*%
D26*
%TO.C,L1*%
X204147710Y-91951666D03*
D27*
X208647710Y-104851666D03*
X199647710Y-104851666D03*
%TD*%
D28*
%TO.C,R52*%
X154887500Y-117500000D03*
X153237500Y-117500000D03*
%TD*%
D29*
%TO.C,C46*%
X187775000Y-75410000D03*
X187775000Y-73685000D03*
%TD*%
D30*
%TO.C,*%
X144000000Y-123500000D03*
%TD*%
D28*
%TO.C,R67*%
X170212500Y-117862500D03*
X168562500Y-117862500D03*
%TD*%
D21*
%TO.C,JP23*%
X221100000Y-64750000D03*
D22*
X222400000Y-64750000D03*
%TD*%
D31*
%TO.C,C44*%
X183525000Y-76885000D03*
X183525000Y-72485000D03*
%TD*%
D32*
%TO.C,R57*%
X158812500Y-103637500D03*
X160462500Y-103637500D03*
%TD*%
D33*
%TO.C,L2*%
X202925000Y-63660000D03*
X198775000Y-63660000D03*
%TD*%
D34*
%TO.C,C53*%
X165137500Y-109137500D03*
X165137500Y-110862500D03*
%TD*%
D23*
%TO.C,C62*%
X227645210Y-73486666D03*
X227645210Y-71936666D03*
%TD*%
D35*
%TO.C,D22*%
X173137500Y-107100000D03*
X173137500Y-104900000D03*
%TD*%
D36*
%TO.C,C42*%
X174887500Y-104750000D03*
X176612500Y-104750000D03*
%TD*%
D19*
%TO.C,JP20*%
X218450000Y-85240000D03*
D20*
X218450000Y-86540000D03*
%TD*%
D36*
%TO.C,C54*%
X165662500Y-114362500D03*
X167387500Y-114362500D03*
%TD*%
D34*
%TO.C,C40*%
X162137500Y-103775000D03*
X162137500Y-105500000D03*
%TD*%
D37*
%TO.C,JP19*%
X225900000Y-102000000D03*
X224600000Y-102000000D03*
%TD*%
D38*
%TO.C,R65*%
X200025000Y-72160000D03*
X200025000Y-73985000D03*
%TD*%
D39*
%TO.C,J28*%
X229295210Y-39936666D03*
X226795210Y-39936666D03*
X224295210Y-39936666D03*
D40*
X221795210Y-39936666D03*
%TD*%
D41*
%TO.C,C47*%
X171000000Y-93312500D03*
X171000000Y-90187500D03*
%TD*%
D37*
%TO.C,JP19*%
X199540000Y-85200000D03*
X198240000Y-85200000D03*
%TD*%
D42*
%TO.C,R49*%
X151500000Y-82250000D03*
X149675000Y-82250000D03*
%TD*%
D43*
%TO.C,R53*%
X145337500Y-90250000D03*
X147162500Y-90250000D03*
%TD*%
D44*
%TO.C,R56*%
X157137500Y-105212500D03*
X157137500Y-103562500D03*
%TD*%
D45*
%TO.C,REF\u002A\u002A*%
X141600000Y-42250000D03*
X142302944Y-40552944D03*
X142302944Y-43947056D03*
X144000000Y-39850000D03*
D30*
X144000000Y-42250000D03*
D45*
X144000000Y-44650000D03*
X145697056Y-40552944D03*
X145697056Y-43947056D03*
X146400000Y-42250000D03*
%TD*%
D23*
%TO.C,C61*%
X225975210Y-73556666D03*
X225975210Y-72006666D03*
%TD*%
D46*
%TO.C,R61*%
X221775000Y-108750000D03*
X217500000Y-108750000D03*
%TD*%
D17*
%TO.C,JP19*%
X176755210Y-75586666D03*
D18*
X176755210Y-74286666D03*
%TD*%
D42*
%TO.C,R46*%
X147662500Y-80500000D03*
X145837500Y-80500000D03*
%TD*%
D32*
%TO.C,R54*%
X151562500Y-119750000D03*
X153212500Y-119750000D03*
%TD*%
D47*
%TO.C,D23*%
X219450000Y-98890000D03*
D48*
X219450000Y-92490000D03*
%TD*%
D28*
%TO.C,R59*%
X160387500Y-102000000D03*
X158737500Y-102000000D03*
%TD*%
D37*
%TO.C,JP21*%
X225900000Y-99250000D03*
X224600000Y-99250000D03*
%TD*%
D45*
%TO.C,REF\u002A\u002A*%
X144000000Y-125900000D03*
X142302944Y-125197056D03*
X145697056Y-125197056D03*
X141600000Y-123500000D03*
D30*
X144000000Y-123500000D03*
D45*
X146400000Y-123500000D03*
X142302944Y-121802944D03*
X145697056Y-121802944D03*
X144000000Y-121100000D03*
%TD*%
D24*
%TO.C,C37*%
X156637500Y-112500000D03*
X154912500Y-112500000D03*
%TD*%
D32*
%TO.C,R60*%
X171562500Y-103000000D03*
X173212500Y-103000000D03*
%TD*%
%TO.C,R68*%
X168562500Y-119612500D03*
X170212500Y-119612500D03*
%TD*%
D24*
%TO.C,C60*%
X209025000Y-70410000D03*
X207300000Y-70410000D03*
%TD*%
D11*
%TO.C,SW1*%
X145987500Y-71352500D03*
D12*
X145987500Y-63732500D03*
%TD*%
D21*
%TO.C,JP9*%
X221100000Y-67000000D03*
D22*
X222400000Y-67000000D03*
%TD*%
D49*
%TO.C,D19*%
X155137500Y-119750000D03*
X156712500Y-119750000D03*
%TD*%
D38*
%TO.C,R63*%
X200100000Y-68160000D03*
X200100000Y-69985000D03*
%TD*%
D50*
%TO.C,U17*%
X230315210Y-70516666D03*
D51*
X232615210Y-76816666D03*
D50*
X232615210Y-70516666D03*
X234915210Y-70516666D03*
%TD*%
D16*
%TO.C,R66*%
X170137500Y-114537500D03*
X170137500Y-116187500D03*
%TD*%
D52*
%TO.C,J27*%
X235132500Y-105500000D03*
D53*
X235132500Y-100500000D03*
%TD*%
D29*
%TO.C,C39*%
X148887500Y-91862500D03*
X148887500Y-90137500D03*
%TD*%
D54*
%TO.C,Q6*%
X189795000Y-104362500D03*
X188525000Y-104362500D03*
X187255000Y-104362500D03*
X185985000Y-104362500D03*
%TD*%
D21*
%TO.C,JP21*%
X230805210Y-59686666D03*
D22*
X232105210Y-59686666D03*
%TD*%
D45*
%TO.C,REF\u002A\u002A*%
X237000000Y-39850000D03*
X238697056Y-40552944D03*
X235302944Y-40552944D03*
X239400000Y-42250000D03*
D30*
X237000000Y-42250000D03*
D45*
X234600000Y-42250000D03*
X238697056Y-43947056D03*
X235302944Y-43947056D03*
X237000000Y-44650000D03*
%TD*%
D55*
%TO.C,C64*%
X235010210Y-65676666D03*
X233460210Y-65676666D03*
%TD*%
D43*
%TO.C,R47*%
X145750000Y-82250000D03*
X147575000Y-82250000D03*
%TD*%
D52*
%TO.C,J25*%
X155975210Y-44954166D03*
D56*
X150975210Y-44954166D03*
%TD*%
D57*
%TO.C,JP22*%
X208650000Y-63000000D03*
D58*
X207350000Y-63000000D03*
%TD*%
D43*
%TO.C,R48*%
X149675000Y-80500000D03*
X151500000Y-80500000D03*
%TD*%
D16*
%TO.C,R58*%
X168137500Y-96240000D03*
X168137500Y-97890000D03*
%TD*%
D59*
%TO.C,Q5*%
X185247500Y-87595000D03*
X185247500Y-88865000D03*
X185247500Y-90135000D03*
X185247500Y-91405000D03*
%TD*%
D49*
%TO.C,D20*%
X155025000Y-115250000D03*
X156600000Y-115250000D03*
%TD*%
D60*
%TO.C,D21*%
X160250000Y-90250000D03*
D61*
X166650000Y-90250000D03*
%TD*%
D55*
%TO.C,C55*%
X201775000Y-75822500D03*
X200225000Y-75822500D03*
%TD*%
D34*
%TO.C,C51*%
X162627500Y-109137500D03*
X162627500Y-110862500D03*
%TD*%
D24*
%TO.C,C59*%
X209025000Y-67900000D03*
X207300000Y-67900000D03*
%TD*%
D57*
%TO.C,JP12*%
X208650000Y-60750000D03*
D58*
X207350000Y-60750000D03*
%TD*%
D17*
%TO.C,JP13*%
X155000000Y-89900000D03*
D18*
X155000000Y-88600000D03*
%TD*%
D62*
%TO.C,Q7*%
X165327500Y-120612500D03*
X163447500Y-121562500D03*
X163447500Y-119662500D03*
%TD*%
D29*
%TO.C,C38*%
X163637500Y-97990000D03*
X163637500Y-96265000D03*
%TD*%
D41*
%TO.C,C48*%
X175000000Y-93375000D03*
X175000000Y-90250000D03*
%TD*%
D24*
%TO.C,C56*%
X209025000Y-65390000D03*
X207300000Y-65390000D03*
%TD*%
D29*
%TO.C,C52*%
X203775000Y-69772500D03*
X203775000Y-68047500D03*
%TD*%
D63*
%TO.C,Q4*%
X158687500Y-96620000D03*
X159637500Y-98500000D03*
X157737500Y-98500000D03*
%TD*%
D45*
%TO.C,REF\u002A\u002A*%
X239400000Y-123500000D03*
X238697056Y-125197056D03*
X238697056Y-121802944D03*
X237000000Y-125900000D03*
D30*
X237000000Y-123500000D03*
D45*
X237000000Y-121100000D03*
X235302944Y-125197056D03*
X235302944Y-121802944D03*
X234600000Y-123500000D03*
%TD*%
D52*
%TO.C,J26*%
X167465210Y-45016666D03*
D56*
X162465210Y-45016666D03*
%TD*%
D29*
%TO.C,C49*%
X167137500Y-110862500D03*
X167137500Y-109137500D03*
%TD*%
D44*
%TO.C,R51*%
X161387500Y-98140000D03*
X161387500Y-96490000D03*
%TD*%
D34*
%TO.C,C41*%
X169887500Y-96090000D03*
X169887500Y-97815000D03*
%TD*%
D64*
%TO.C,R62*%
X202100000Y-69910000D03*
X202100000Y-68085000D03*
%TD*%
D65*
%TO.C,C57*%
X224012500Y-87890000D03*
X220887500Y-87890000D03*
%TD*%
D16*
%TO.C,R45*%
X154887500Y-108750000D03*
X154887500Y-110400000D03*
%TD*%
%TO.C,R44*%
X156637500Y-108750000D03*
X156637500Y-110400000D03*
%TD*%
D66*
%TO.C,TP1*%
X155637500Y-98500000D03*
%TD*%
D29*
%TO.C,C50*%
X169000000Y-110862500D03*
X169000000Y-109137500D03*
%TD*%
D17*
%TO.C,JP18*%
X153000000Y-89900000D03*
D18*
X153000000Y-88600000D03*
%TD*%
D67*
%TO.C,TH1*%
X174387500Y-118750000D03*
X174387500Y-114475000D03*
%TD*%
D32*
%TO.C,R55*%
X151487500Y-115250000D03*
X153137500Y-115250000D03*
%TD*%
D16*
%TO.C,R64*%
X165637500Y-116287500D03*
X165637500Y-117937500D03*
%TD*%
D68*
%TO.C,J32*%
X183130210Y-40236666D03*
D69*
X180590210Y-40236666D03*
%TD*%
D70*
%TO.C,U16*%
X192775000Y-71410000D03*
D71*
X195250000Y-69505000D03*
X195250000Y-70775000D03*
X195250000Y-72045000D03*
X195250000Y-73315000D03*
X190300000Y-73315000D03*
X190300000Y-72045000D03*
X190300000Y-70775000D03*
X190300000Y-69505000D03*
%TD*%
D72*
%TO.C,J33*%
X195557710Y-41471666D03*
D73*
X193057710Y-41471666D03*
%TD*%
D68*
%TO.C,J29*%
X169700210Y-63046666D03*
D69*
X172240210Y-63046666D03*
%TD*%
D68*
%TO.C,J30*%
X193935210Y-53596666D03*
D69*
X193935210Y-56136666D03*
%TD*%
D68*
%TO.C,J31*%
X177020210Y-40236666D03*
D69*
X174480210Y-40236666D03*
%TD*%
D55*
%TO.C,C63*%
X234990210Y-67476666D03*
X233440210Y-67476666D03*
%TD*%
D74*
%TO.C,D3*%
X94677500Y-89180000D03*
X92477500Y-89180000D03*
%TD*%
D75*
%TO.C,SNS_TX11*%
X81730000Y-70780000D03*
%TD*%
D44*
%TO.C,R3*%
X126800000Y-75860000D03*
X126800000Y-77510000D03*
%TD*%
D69*
%TO.C,J8*%
X66530000Y-125590000D03*
D68*
X69070000Y-125590000D03*
%TD*%
D76*
%TO.C,C28*%
X82249000Y-51515000D03*
X80699000Y-51515000D03*
%TD*%
D77*
%TO.C,U3*%
X109120000Y-82185000D03*
D78*
X109520000Y-83085000D03*
X110020000Y-83085000D03*
X110520000Y-83085000D03*
X111020000Y-83085000D03*
X111520000Y-83085000D03*
X112020000Y-83085000D03*
X112520000Y-83085000D03*
X113020000Y-83085000D03*
D77*
X113420000Y-82185000D03*
X113420000Y-80685000D03*
D78*
X113020000Y-79785000D03*
X112520000Y-79785000D03*
X112020000Y-79785000D03*
X111520000Y-79785000D03*
X111020000Y-79785000D03*
X110520000Y-79785000D03*
X110020000Y-79785000D03*
X109520000Y-79785000D03*
D77*
X109120000Y-80685000D03*
D79*
X111270000Y-81435000D03*
%TD*%
D80*
%TO.C,GSM2*%
X78510000Y-123460000D03*
D81*
X79985000Y-124960000D03*
D80*
X78510000Y-126460000D03*
D81*
X77035000Y-124960000D03*
%TD*%
D44*
%TO.C,R34*%
X43735000Y-60952500D03*
X43735000Y-62602500D03*
%TD*%
D75*
%TO.C,SNS_TX1*%
X126790000Y-72680000D03*
%TD*%
D23*
%TO.C,C5*%
X128930000Y-100015000D03*
X128930000Y-101565000D03*
%TD*%
D82*
%TO.C,J20*%
X40200000Y-69270000D03*
D39*
X40200000Y-71770000D03*
X40200000Y-74270000D03*
%TD*%
D83*
%TO.C,D7*%
X127200000Y-112050000D03*
X129400000Y-112050000D03*
%TD*%
D58*
%TO.C,JP3*%
X119050000Y-122140000D03*
D57*
X120350000Y-122140000D03*
%TD*%
D55*
%TO.C,C15*%
X126055000Y-105380000D03*
X127605000Y-105380000D03*
%TD*%
%TO.C,C22*%
X80245000Y-120390000D03*
X81795000Y-120390000D03*
%TD*%
%TO.C,C4*%
X54670000Y-50690000D03*
X56220000Y-50690000D03*
%TD*%
D28*
%TO.C,R39*%
X85989000Y-45635000D03*
X87639000Y-45635000D03*
%TD*%
D75*
%TO.C,SNS_TX19*%
X70940000Y-113390000D03*
%TD*%
D23*
%TO.C,C7*%
X116500000Y-122135000D03*
X116500000Y-123685000D03*
%TD*%
D58*
%TO.C,JP10*%
X83850000Y-78190000D03*
D57*
X85150000Y-78190000D03*
%TD*%
D20*
%TO.C,JP16*%
X97330000Y-41922500D03*
D19*
X97330000Y-40622500D03*
%TD*%
D16*
%TO.C,R42*%
X111590000Y-49430000D03*
X111590000Y-47780000D03*
%TD*%
D84*
%TO.C,D13*%
X79670000Y-74630000D03*
X79670000Y-73055000D03*
%TD*%
D85*
%TO.C,C14*%
X53840000Y-44042500D03*
X53840000Y-40917500D03*
%TD*%
D69*
%TO.C,J1*%
X50170000Y-48045000D03*
D68*
X50170000Y-50585000D03*
%TD*%
D86*
%TO.C,J15*%
X59347500Y-125685000D03*
D39*
X56847500Y-125685000D03*
X54347500Y-125685000D03*
X51847500Y-125685000D03*
%TD*%
D87*
%TO.C,D25*%
X55190000Y-96602500D03*
X55190000Y-98702500D03*
%TD*%
D32*
%TO.C,R15*%
X136000000Y-103045000D03*
X134350000Y-103045000D03*
%TD*%
D23*
%TO.C,C1*%
X105320000Y-124405000D03*
X105320000Y-125955000D03*
%TD*%
D32*
%TO.C,R20*%
X81625000Y-68160000D03*
X79975000Y-68160000D03*
%TD*%
D28*
%TO.C,R16*%
X120947500Y-116170000D03*
X122597500Y-116170000D03*
%TD*%
D75*
%TO.C,SNS_TX12*%
X73210000Y-84440000D03*
%TD*%
D82*
%TO.C,J18*%
X40265000Y-99632500D03*
D39*
X40265000Y-102132500D03*
X40265000Y-104632500D03*
%TD*%
D75*
%TO.C,SNS_TX7*%
X56700000Y-55720000D03*
%TD*%
D44*
%TO.C,R26*%
X86820000Y-73015000D03*
X86820000Y-74665000D03*
%TD*%
D45*
%TO.C,REF\u002A\u002A*%
X131270000Y-123500000D03*
X131972944Y-121802944D03*
X131972944Y-125197056D03*
X133670000Y-121100000D03*
D30*
X133670000Y-123500000D03*
D45*
X133670000Y-125900000D03*
X135367056Y-121802944D03*
X135367056Y-125197056D03*
X136070000Y-123500000D03*
%TD*%
D32*
%TO.C,R36*%
X45720000Y-98872500D03*
X44070000Y-98872500D03*
%TD*%
D45*
%TO.C,REF\u002A\u002A*%
X133670000Y-44650000D03*
X131972944Y-43947056D03*
X135367056Y-43947056D03*
X131270000Y-42250000D03*
D30*
X133670000Y-42250000D03*
D45*
X136070000Y-42250000D03*
X131972944Y-40552944D03*
X135367056Y-40552944D03*
X133670000Y-39850000D03*
%TD*%
D75*
%TO.C,SNS_TX9*%
X90890000Y-70710000D03*
%TD*%
D16*
%TO.C,R37*%
X44150000Y-102095000D03*
X44150000Y-100445000D03*
%TD*%
D69*
%TO.C,J3*%
X88820000Y-100510000D03*
D68*
X88820000Y-103050000D03*
%TD*%
D69*
%TO.C,J10*%
X58240000Y-107225000D03*
D68*
X58240000Y-104685000D03*
%TD*%
D16*
%TO.C,R40*%
X121610000Y-49275000D03*
X121610000Y-47625000D03*
%TD*%
D55*
%TO.C,C21*%
X80235000Y-118640000D03*
X81785000Y-118640000D03*
%TD*%
D88*
%TO.C,U5*%
X118270000Y-88190000D03*
X117270000Y-88190000D03*
X116270000Y-88190000D03*
X115270000Y-88190000D03*
X114270000Y-88190000D03*
X113270000Y-88190000D03*
X112270000Y-88190000D03*
X111270000Y-88190000D03*
X110270000Y-88190000D03*
X109270000Y-88190000D03*
X108270000Y-88190000D03*
X107270000Y-88190000D03*
X106270000Y-88190000D03*
X105270000Y-88190000D03*
X104270000Y-88190000D03*
X103270000Y-88190000D03*
X102270000Y-88190000D03*
D89*
X98270000Y-92190000D03*
X98270000Y-93190000D03*
X98270000Y-94190000D03*
X98270000Y-95190000D03*
X98270000Y-96190000D03*
X98270000Y-97190000D03*
X98270000Y-98190000D03*
X98270000Y-99190000D03*
X98270000Y-100190000D03*
X98270000Y-101190000D03*
X98270000Y-102190000D03*
X98270000Y-103190000D03*
X98270000Y-104190000D03*
X98270000Y-105190000D03*
X98270000Y-106190000D03*
X98270000Y-107190000D03*
X98270000Y-108190000D03*
D88*
X102270000Y-112190000D03*
X103270000Y-112190000D03*
X104270000Y-112190000D03*
X105270000Y-112190000D03*
X106270000Y-112190000D03*
X107270000Y-112190000D03*
X108270000Y-112190000D03*
X109270000Y-112190000D03*
X110270000Y-112190000D03*
X111270000Y-112190000D03*
X112270000Y-112190000D03*
X113270000Y-112190000D03*
X114270000Y-112190000D03*
X115270000Y-112190000D03*
X116270000Y-112190000D03*
X117270000Y-112190000D03*
X118270000Y-112190000D03*
D89*
X122270000Y-108190000D03*
X122270000Y-107190000D03*
X122270000Y-106190000D03*
X122270000Y-105190000D03*
X122270000Y-104190000D03*
X122270000Y-103190000D03*
X122270000Y-102190000D03*
X122270000Y-101190000D03*
X122270000Y-100190000D03*
X122270000Y-99190000D03*
X122270000Y-98190000D03*
X122270000Y-97190000D03*
X122270000Y-96190000D03*
X122270000Y-95190000D03*
X122270000Y-94190000D03*
X122270000Y-93190000D03*
X122270000Y-92190000D03*
%TD*%
D16*
%TO.C,R5*%
X94592500Y-98995000D03*
X94592500Y-97345000D03*
%TD*%
D90*
%TO.C,U11*%
X90524000Y-51515000D03*
X90524000Y-50245000D03*
X90524000Y-48975000D03*
X90524000Y-47705000D03*
X84936000Y-47705000D03*
X84936000Y-48975000D03*
X84936000Y-50245000D03*
X84936000Y-51515000D03*
%TD*%
D44*
%TO.C,R12*%
X56730000Y-58185000D03*
X56730000Y-59835000D03*
%TD*%
D55*
%TO.C,C34*%
X111565000Y-58410000D03*
X113115000Y-58410000D03*
%TD*%
D16*
%TO.C,R14*%
X135870000Y-112540000D03*
X135870000Y-110890000D03*
%TD*%
D82*
%TO.C,J22*%
X40260000Y-110840000D03*
D39*
X40260000Y-113340000D03*
X40260000Y-115840000D03*
%TD*%
D91*
%TO.C,J17*%
X134680000Y-62130000D03*
D39*
X134680000Y-59630000D03*
X134680000Y-57130000D03*
X134680000Y-54630000D03*
%TD*%
D55*
%TO.C,C32*%
X111595000Y-55220000D03*
X113145000Y-55220000D03*
%TD*%
D76*
%TO.C,C12*%
X126665000Y-83950000D03*
X125115000Y-83950000D03*
%TD*%
D23*
%TO.C,C26*%
X85130000Y-73055000D03*
X85130000Y-74605000D03*
%TD*%
D76*
%TO.C,C27*%
X66065000Y-89240000D03*
X64515000Y-89240000D03*
%TD*%
D22*
%TO.C,JP13*%
X53590000Y-101330000D03*
D21*
X52290000Y-101330000D03*
%TD*%
D58*
%TO.C,JP17*%
X104240000Y-63500000D03*
D57*
X105540000Y-63500000D03*
%TD*%
D75*
%TO.C,SNS_TX18*%
X74750000Y-86780000D03*
%TD*%
D92*
%TO.C,U1*%
X107840000Y-119737500D03*
X107840000Y-122037500D03*
D93*
X114140000Y-122037500D03*
D92*
X107840000Y-124337500D03*
%TD*%
D55*
%TO.C,C30*%
X55175000Y-94490000D03*
X56725000Y-94490000D03*
%TD*%
D75*
%TO.C,SNS_TX17*%
X76060000Y-84440000D03*
%TD*%
D94*
%TO.C,U9*%
X76240000Y-92220000D03*
X74970000Y-92220000D03*
X73700000Y-92220000D03*
X72430000Y-92220000D03*
X71160000Y-92220000D03*
X69890000Y-92220000D03*
X68560000Y-92220000D03*
X67350000Y-92220000D03*
X66080000Y-92220000D03*
X66080000Y-108220000D03*
X67350000Y-108220000D03*
X68560000Y-108220000D03*
X69890000Y-108220000D03*
X71160000Y-108220000D03*
X72430000Y-108220000D03*
X73700000Y-108220000D03*
X74970000Y-108220000D03*
X76240000Y-108220000D03*
%TD*%
D75*
%TO.C,SNS_TX10*%
X90880000Y-73780000D03*
%TD*%
D84*
%TO.C,D18*%
X113230000Y-52507500D03*
X113230000Y-50932500D03*
%TD*%
D58*
%TO.C,JP14*%
X59390000Y-85590000D03*
D57*
X60690000Y-85590000D03*
%TD*%
D95*
%TO.C,J14*%
X40125000Y-60722500D03*
D72*
X40125000Y-63222500D03*
%TD*%
D44*
%TO.C,R10*%
X74310000Y-64415000D03*
X74310000Y-66065000D03*
%TD*%
%TO.C,R33*%
X43915000Y-90662500D03*
X43915000Y-92312500D03*
%TD*%
%TO.C,R7*%
X83110000Y-56155000D03*
X83110000Y-57805000D03*
%TD*%
D75*
%TO.C,SNS_TX2*%
X89080000Y-96580000D03*
%TD*%
D28*
%TO.C,R4*%
X54675000Y-47110000D03*
X56325000Y-47110000D03*
%TD*%
D32*
%TO.C,R30*%
X70745000Y-122900000D03*
X69095000Y-122900000D03*
%TD*%
D55*
%TO.C,C16*%
X126060000Y-107110000D03*
X127610000Y-107110000D03*
%TD*%
D23*
%TO.C,C31*%
X57380000Y-85330000D03*
X57380000Y-86880000D03*
%TD*%
D44*
%TO.C,R32*%
X44180000Y-79915000D03*
X44180000Y-81565000D03*
%TD*%
D45*
%TO.C,REF\u002A\u002A*%
X40670000Y-121100000D03*
X42367056Y-121802944D03*
X38972944Y-121802944D03*
X43070000Y-123500000D03*
D30*
X40670000Y-123500000D03*
D45*
X38270000Y-123500000D03*
X42367056Y-125197056D03*
X38972944Y-125197056D03*
X40670000Y-125900000D03*
%TD*%
D96*
%TO.C,U10*%
X50580000Y-92160000D03*
X52880000Y-92160000D03*
D97*
X52880000Y-85860000D03*
D96*
X55180000Y-92160000D03*
%TD*%
D75*
%TO.C,SNS_TX15*%
X80430000Y-86840000D03*
%TD*%
D28*
%TO.C,R1*%
X129045000Y-98410000D03*
X130695000Y-98410000D03*
%TD*%
D75*
%TO.C,SNS_TX16*%
X77540000Y-86780000D03*
%TD*%
D44*
%TO.C,R8*%
X81340000Y-56115000D03*
X81340000Y-57765000D03*
%TD*%
D98*
%TO.C,FB1*%
X125850000Y-111669000D03*
X125850000Y-112231000D03*
%TD*%
D82*
%TO.C,J19*%
X40145000Y-49817500D03*
D39*
X40145000Y-52317500D03*
X40145000Y-54817500D03*
%TD*%
D85*
%TO.C,C25*%
X65600000Y-86922500D03*
X65600000Y-83797500D03*
%TD*%
D99*
%TO.C,D20*%
X102210000Y-48750000D03*
X104310000Y-48750000D03*
%TD*%
D20*
%TO.C,JP15*%
X115740000Y-49620000D03*
D19*
X115740000Y-48320000D03*
%TD*%
D100*
%TO.C,U13*%
X100625000Y-51345000D03*
X100625000Y-51995000D03*
X100625000Y-52645000D03*
X100625000Y-53295000D03*
X100625000Y-53945000D03*
X100625000Y-54595000D03*
X100625000Y-55245000D03*
X100625000Y-55895000D03*
X100625000Y-56545000D03*
X100625000Y-57195000D03*
X100625000Y-57845000D03*
X100625000Y-58495000D03*
X100625000Y-59145000D03*
X100625000Y-59795000D03*
X107875000Y-59795000D03*
X107875000Y-59145000D03*
X107875000Y-58495000D03*
X107875000Y-57845000D03*
X107875000Y-57195000D03*
X107875000Y-56545000D03*
X107875000Y-55895000D03*
X107875000Y-55245000D03*
X107875000Y-54595000D03*
X107875000Y-53945000D03*
X107875000Y-53295000D03*
X107875000Y-52645000D03*
X107875000Y-51995000D03*
X107875000Y-51345000D03*
%TD*%
D16*
%TO.C,R2*%
X92902500Y-98995000D03*
X92902500Y-97345000D03*
%TD*%
D69*
%TO.C,J4*%
X85940000Y-59190000D03*
D68*
X85940000Y-56650000D03*
%TD*%
D101*
%TO.C,C13*%
X56250000Y-44315000D03*
X56250000Y-42765000D03*
%TD*%
D74*
%TO.C,D4*%
X126850000Y-85790000D03*
X124650000Y-85790000D03*
%TD*%
D82*
%TO.C,J12*%
X40250000Y-80170000D03*
D39*
X40250000Y-82670000D03*
X40250000Y-85170000D03*
%TD*%
D101*
%TO.C,C36*%
X100020000Y-42312500D03*
X100020000Y-40762500D03*
%TD*%
D69*
%TO.C,J6*%
X49510000Y-57350000D03*
D68*
X49510000Y-59890000D03*
X49510000Y-62430000D03*
X49510000Y-64970000D03*
X49510000Y-67510000D03*
X49510000Y-70050000D03*
%TD*%
D102*
%TO.C,D11*%
X67782500Y-85420000D03*
X69357500Y-85420000D03*
%TD*%
D55*
%TO.C,C35*%
X102255000Y-47020000D03*
X103805000Y-47020000D03*
%TD*%
D16*
%TO.C,R41*%
X118500000Y-49215000D03*
X118500000Y-47565000D03*
%TD*%
D92*
%TO.C,U12*%
X102390000Y-40270000D03*
X102390000Y-42570000D03*
D93*
X108690000Y-42570000D03*
D92*
X102390000Y-44870000D03*
%TD*%
D103*
%TO.C,J21*%
X88010000Y-41301500D03*
D72*
X85510000Y-41301500D03*
%TD*%
D102*
%TO.C,D9*%
X117555000Y-116160000D03*
X119130000Y-116160000D03*
%TD*%
D91*
%TO.C,J11*%
X134695000Y-75812500D03*
D39*
X134695000Y-73312500D03*
X134695000Y-70812500D03*
X134695000Y-68312500D03*
%TD*%
D58*
%TO.C,JP6*%
X125340000Y-116130000D03*
D57*
X126640000Y-116130000D03*
%TD*%
D76*
%TO.C,C11*%
X94455000Y-91050000D03*
X92905000Y-91050000D03*
%TD*%
D104*
%TO.C,D21*%
X103097500Y-124420000D03*
X100997500Y-124420000D03*
%TD*%
D16*
%TO.C,R43*%
X113230000Y-49430000D03*
X113230000Y-47780000D03*
%TD*%
D76*
%TO.C,C2*%
X107135000Y-79530000D03*
X105585000Y-79530000D03*
%TD*%
D69*
%TO.C,J2*%
X95730000Y-57095000D03*
D68*
X95730000Y-59635000D03*
%TD*%
D16*
%TO.C,R11*%
X72410000Y-66085000D03*
X72410000Y-64435000D03*
%TD*%
D75*
%TO.C,SNS_TX13*%
X72000000Y-86750000D03*
%TD*%
D16*
%TO.C,R38*%
X43845000Y-70832500D03*
X43845000Y-69182500D03*
%TD*%
D69*
%TO.C,J5*%
X95730000Y-53250000D03*
D68*
X95730000Y-50710000D03*
X95730000Y-48170000D03*
X95730000Y-45630000D03*
%TD*%
D105*
%TO.C,Q3*%
X134110000Y-108705000D03*
X136010000Y-108705000D03*
X135060000Y-106830000D03*
%TD*%
D20*
%TO.C,JP8*%
X62970000Y-86700000D03*
D19*
X62970000Y-85400000D03*
%TD*%
D106*
%TO.C,GSM1*%
X133430000Y-98410000D03*
D107*
X134930000Y-96935000D03*
D106*
X136430000Y-98410000D03*
D107*
X134930000Y-99885000D03*
%TD*%
D75*
%TO.C,SNS_TX14*%
X82820000Y-88900000D03*
%TD*%
D44*
%TO.C,R6*%
X125020000Y-75885000D03*
X125020000Y-77535000D03*
%TD*%
%TO.C,R29*%
X81480000Y-73027500D03*
X81480000Y-74677500D03*
%TD*%
D108*
%TO.C,C17*%
X126257500Y-109520000D03*
X129382500Y-109520000D03*
%TD*%
D75*
%TO.C,SNS_TX3*%
X54100000Y-53510000D03*
%TD*%
D76*
%TO.C,C8*%
X56230000Y-48870000D03*
X54680000Y-48870000D03*
%TD*%
D28*
%TO.C,R9*%
X63000000Y-40650000D03*
X64650000Y-40650000D03*
%TD*%
D105*
%TO.C,Q1*%
X92832500Y-95327500D03*
X94732500Y-95327500D03*
X93782500Y-93452500D03*
%TD*%
D95*
%TO.C,J13*%
X40140000Y-91040000D03*
D72*
X40140000Y-93540000D03*
%TD*%
D55*
%TO.C,C33*%
X111575000Y-56820000D03*
X113125000Y-56820000D03*
%TD*%
D22*
%TO.C,JP1*%
X98440000Y-124350000D03*
D21*
X97140000Y-124350000D03*
%TD*%
D23*
%TO.C,C10*%
X130810000Y-100015000D03*
X130810000Y-101565000D03*
%TD*%
D109*
%TO.C,J24*%
X122690000Y-43007500D03*
X116910000Y-43007500D03*
D110*
X124125000Y-43497500D03*
X115475000Y-43497500D03*
D111*
X124125000Y-39327500D03*
X115475000Y-39327500D03*
%TD*%
D75*
%TO.C,SNS_TX4*%
X56610000Y-53160000D03*
%TD*%
D112*
%TO.C,J23*%
X134620000Y-85110000D03*
D72*
X134620000Y-82610000D03*
%TD*%
D75*
%TO.C,SNS_TX5*%
X116760000Y-80700000D03*
%TD*%
D113*
%TO.C,Q2*%
X126930000Y-79542500D03*
X125030000Y-79542500D03*
X125980000Y-81417500D03*
%TD*%
D32*
%TO.C,R23*%
X69385000Y-86990000D03*
X67735000Y-86990000D03*
%TD*%
%TO.C,R21*%
X81595000Y-66380000D03*
X79945000Y-66380000D03*
%TD*%
D45*
%TO.C,REF\u002A\u002A*%
X43070000Y-42250000D03*
X42367056Y-43947056D03*
X42367056Y-40552944D03*
X40670000Y-44650000D03*
D30*
X40670000Y-42250000D03*
D45*
X40670000Y-39850000D03*
X38972944Y-43947056D03*
X38972944Y-40552944D03*
X38270000Y-42250000D03*
%TD*%
D102*
%TO.C,D5*%
X59832500Y-40680000D03*
X61407500Y-40680000D03*
%TD*%
D114*
%TO.C,U8*%
X84065000Y-70035000D03*
X85335000Y-70035000D03*
X86605000Y-70035000D03*
X87875000Y-70035000D03*
X87875000Y-65085000D03*
X86605000Y-65085000D03*
X85335000Y-65085000D03*
X84065000Y-65085000D03*
%TD*%
D44*
%TO.C,R25*%
X83490000Y-73045000D03*
X83490000Y-74695000D03*
%TD*%
D20*
%TO.C,JP11*%
X81664000Y-49345000D03*
D19*
X81664000Y-48045000D03*
%TD*%
D16*
%TO.C,R13*%
X134180000Y-112550000D03*
X134180000Y-110900000D03*
%TD*%
D84*
%TO.C,D17*%
X111580000Y-52507500D03*
X111580000Y-50932500D03*
%TD*%
D115*
%TO.C,U4*%
X59620000Y-43090000D03*
X59620000Y-44360000D03*
X59620000Y-45630000D03*
X59620000Y-46900000D03*
X59620000Y-48170000D03*
X59620000Y-49440000D03*
X59620000Y-50710000D03*
X59620000Y-51980000D03*
X59620000Y-53250000D03*
X59620000Y-54520000D03*
X59620000Y-55790000D03*
X59620000Y-57060000D03*
X59620000Y-58330000D03*
X59620000Y-59600000D03*
D116*
X62660000Y-60850000D03*
X63930000Y-60850000D03*
X65200000Y-60850000D03*
X66470000Y-60850000D03*
X67740000Y-60850000D03*
X69010000Y-60850000D03*
X70280000Y-60850000D03*
X71550000Y-60850000D03*
X72820000Y-60850000D03*
X74090000Y-60850000D03*
D115*
X77120000Y-59600000D03*
X77120000Y-58330000D03*
X77120000Y-57060000D03*
X77120000Y-55790000D03*
X77120000Y-54520000D03*
X77120000Y-53250000D03*
X77120000Y-51980000D03*
X77120000Y-50710000D03*
X77120000Y-49440000D03*
X77120000Y-48170000D03*
X77120000Y-46900000D03*
X77120000Y-45630000D03*
X77120000Y-44360000D03*
X77120000Y-43090000D03*
D117*
X65470000Y-49030000D03*
X66870000Y-49030000D03*
X68270000Y-49030000D03*
X65470000Y-50430000D03*
X66870000Y-50430000D03*
X68270000Y-50430000D03*
X65470000Y-51830000D03*
X66870000Y-51830000D03*
X68270000Y-51830000D03*
D118*
X66170000Y-49030000D03*
X67570000Y-49030000D03*
X65470000Y-49730000D03*
X66870000Y-49730000D03*
X68270000Y-49730000D03*
X66170000Y-50430000D03*
X67570000Y-50430000D03*
X65470000Y-51130000D03*
X66870000Y-51130000D03*
X68270000Y-51130000D03*
X66170000Y-51830000D03*
X67570000Y-51830000D03*
%TD*%
D20*
%TO.C,JP5*%
X51260000Y-43840000D03*
D19*
X51260000Y-42540000D03*
%TD*%
D102*
%TO.C,D8*%
X134382500Y-104665000D03*
X135957500Y-104665000D03*
%TD*%
D76*
%TO.C,C6*%
X107165000Y-83290000D03*
X105615000Y-83290000D03*
%TD*%
D44*
%TO.C,R24*%
X78540000Y-118695000D03*
X78540000Y-120345000D03*
%TD*%
D69*
%TO.C,J9*%
X58230000Y-100845000D03*
D68*
X58230000Y-98305000D03*
%TD*%
D119*
%TO.C,BT1*%
X111195000Y-70340000D03*
D120*
X95295000Y-70340000D03*
%TD*%
M02*
