%TF.GenerationSoftware,KiCad,Pcbnew,9.0.6*%
%TF.CreationDate,2026-02-17T13:33:00+03:00*%
%TF.ProjectId,AWS PROJECT,41575320-5052-44f4-9a45-43542e6b6963,rev?*%
%TF.SameCoordinates,Original*%
%TF.FileFunction,Paste,Top*%
%TF.FilePolarity,Positive*%
%FSLAX46Y46*%
G04 Gerber Fmt 4.6, Leading zero omitted, Abs format (unit mm)*
G04 Created by KiCad (PCBNEW 9.0.6) date 2026-02-17 13:33:00*
%MOMM*%
%LPD*%
G01*
G04 APERTURE LIST*
G04 Aperture macros list*
%AMRoundRect*
0 Rectangle with rounded corners*
0 $1 Rounding radius*
0 $2 $3 $4 $5 $6 $7 $8 $9 X,Y pos of 4 corners*
0 Add a 4 corners polygon primitive as box body*
4,1,4,$2,$3,$4,$5,$6,$7,$8,$9,$2,$3,0*
0 Add four circle primitives for the rounded corners*
1,1,$1+$1,$2,$3*
1,1,$1+$1,$4,$5*
1,1,$1+$1,$6,$7*
1,1,$1+$1,$8,$9*
0 Add four rect primitives between the rounded corners*
20,1,$1+$1,$2,$3,$4,$5,0*
20,1,$1+$1,$4,$5,$6,$7,0*
20,1,$1+$1,$6,$7,$8,$9,0*
20,1,$1+$1,$8,$9,$2,$3,0*%
%AMOutline4P*
0 Free polygon, 4 corners , with rotation*
0 The origin of the aperture is its center*
0 number of corners: always 4*
0 $1 to $8 corner X, Y*
0 $9 Rotation angle, in degrees counterclockwise*
0 create outline with 4 corners*
4,1,4,$1,$2,$3,$4,$5,$6,$7,$8,$1,$2,$9*%
G04 Aperture macros list end*
%ADD10C,0.010000*%
%ADD11RoundRect,0.032500X-0.397500X0.097500X-0.397500X-0.097500X0.397500X-0.097500X0.397500X0.097500X0*%
%ADD12RoundRect,0.032500X-0.097500X0.397500X-0.097500X-0.397500X0.097500X-0.397500X0.097500X0.397500X0*%
%ADD13RoundRect,0.200000X0.275000X-0.200000X0.275000X0.200000X-0.275000X0.200000X-0.275000X-0.200000X0*%
%ADD14RoundRect,0.225000X-0.250000X0.225000X-0.250000X-0.225000X0.250000X-0.225000X0.250000X0.225000X0*%
%ADD15RoundRect,0.237500X-0.300000X-0.237500X0.300000X-0.237500X0.300000X0.237500X-0.300000X0.237500X0*%
%ADD16RoundRect,0.250000X0.412500X0.650000X-0.412500X0.650000X-0.412500X-0.650000X0.412500X-0.650000X0*%
%ADD17RoundRect,0.360000X-0.840000X-0.840000X0.840000X-0.840000X0.840000X0.840000X-0.840000X0.840000X0*%
%ADD18RoundRect,0.450000X-1.050000X-1.050000X1.050000X-1.050000X1.050000X1.050000X-1.050000X1.050000X0*%
%ADD19RoundRect,0.200000X-0.200000X-0.275000X0.200000X-0.275000X0.200000X0.275000X-0.200000X0.275000X0*%
%ADD20RoundRect,0.237500X-0.237500X0.300000X-0.237500X-0.300000X0.237500X-0.300000X0.237500X0.300000X0*%
%ADD21RoundRect,0.250000X-0.550000X1.250000X-0.550000X-1.250000X0.550000X-1.250000X0.550000X1.250000X0*%
%ADD22RoundRect,0.200000X0.200000X0.275000X-0.200000X0.275000X-0.200000X-0.275000X0.200000X-0.275000X0*%
%ADD23R,2.350000X5.100000*%
%ADD24RoundRect,0.237500X0.237500X-0.300000X0.237500X0.300000X-0.237500X0.300000X-0.237500X-0.300000X0*%
%ADD25RoundRect,0.125000X-0.125000X0.125000X-0.125000X-0.125000X0.125000X-0.125000X0.125000X0.125000X0*%
%ADD26RoundRect,0.237500X0.300000X0.237500X-0.300000X0.237500X-0.300000X-0.237500X0.300000X-0.237500X0*%
%ADD27RoundRect,0.237500X0.237500X-0.250000X0.237500X0.250000X-0.237500X0.250000X-0.237500X-0.250000X0*%
%ADD28RoundRect,0.250000X-0.650000X0.412500X-0.650000X-0.412500X0.650000X-0.412500X0.650000X0.412500X0*%
%ADD29RoundRect,0.237500X-0.250000X-0.237500X0.250000X-0.237500X0.250000X0.237500X-0.250000X0.237500X0*%
%ADD30RoundRect,0.237500X0.250000X0.237500X-0.250000X0.237500X-0.250000X-0.237500X0.250000X-0.237500X0*%
%ADD31RoundRect,0.200000X-0.275000X0.200000X-0.275000X-0.200000X0.275000X-0.200000X0.275000X0.200000X0*%
%ADD32RoundRect,0.250000X-0.312500X-1.450000X0.312500X-1.450000X0.312500X1.450000X-0.312500X1.450000X0*%
%ADD33Outline4P,-2.150000X-1.800000X2.150000X-0.800000X2.150000X0.800000X-2.150000X1.800000X90.000000*%
%ADD34Outline4P,-2.150000X-1.800000X2.150000X-0.800000X2.150000X0.800000X-2.150000X1.800000X270.000000*%
%ADD35RoundRect,0.218750X0.218750X0.256250X-0.218750X0.256250X-0.218750X-0.256250X0.218750X-0.256250X0*%
%ADD36RoundRect,0.375000X-0.375000X0.625000X-0.375000X-0.625000X0.375000X-0.625000X0.375000X0.625000X0*%
%ADD37RoundRect,0.500000X-1.400000X0.500000X-1.400000X-0.500000X1.400000X-0.500000X1.400000X0.500000X0*%
%ADD38R,0.750000X1.000000*%
%ADD39RoundRect,0.225000X-0.225000X-0.250000X0.225000X-0.250000X0.225000X0.250000X-0.225000X0.250000X0*%
%ADD40R,1.000000X0.750000*%
%ADD41Outline4P,-2.150000X-1.800000X2.150000X-0.800000X2.150000X0.800000X-2.150000X1.800000X0.000000*%
%ADD42Outline4P,-2.150000X-1.800000X2.150000X-0.800000X2.150000X0.800000X-2.150000X1.800000X180.000000*%
%ADD43RoundRect,0.150000X-0.590000X-0.150000X0.590000X-0.150000X0.590000X0.150000X-0.590000X0.150000X0*%
%ADD44RoundRect,0.150000X0.150000X-0.590000X0.150000X0.590000X-0.150000X0.590000X-0.150000X-0.590000X0*%
%ADD45RoundRect,0.237500X-0.237500X0.250000X-0.237500X-0.250000X0.237500X-0.250000X0.237500X0.250000X0*%
%ADD46RoundRect,0.250000X-0.412500X-1.100000X0.412500X-1.100000X0.412500X1.100000X-0.412500X1.100000X0*%
%ADD47RoundRect,0.250000X-1.450000X0.312500X-1.450000X-0.312500X1.450000X-0.312500X1.450000X0.312500X0*%
%ADD48RoundRect,0.050000X0.050000X0.250000X-0.050000X0.250000X-0.050000X-0.250000X0.050000X-0.250000X0*%
%ADD49RoundRect,0.100000X0.425000X0.100000X-0.425000X0.100000X-0.425000X-0.100000X0.425000X-0.100000X0*%
%ADD50RoundRect,0.150000X-0.835000X-0.150000X0.835000X-0.150000X0.835000X0.150000X-0.835000X0.150000X0*%
%ADD51RoundRect,0.125000X0.125000X0.125000X-0.125000X0.125000X-0.125000X-0.125000X0.125000X-0.125000X0*%
%ADD52RoundRect,0.225000X0.225000X0.250000X-0.225000X0.250000X-0.225000X-0.250000X0.225000X-0.250000X0*%
%ADD53RoundRect,0.006000X0.294000X-0.114000X0.294000X0.114000X-0.294000X0.114000X-0.294000X-0.114000X0*%
%ADD54RoundRect,0.006000X0.114000X-0.294000X0.114000X0.294000X-0.114000X0.294000X-0.114000X-0.294000X0*%
%ADD55RoundRect,0.100000X-0.400000X-0.400000X0.400000X-0.400000X0.400000X0.400000X-0.400000X0.400000X0*%
%ADD56RoundRect,0.105000X-0.420000X-0.995000X0.420000X-0.995000X0.420000X0.995000X-0.420000X0.995000X0*%
%ADD57RoundRect,0.125000X-0.125000X-0.125000X0.125000X-0.125000X0.125000X0.125000X-0.125000X0.125000X0*%
%ADD58RoundRect,0.218750X0.256250X-0.218750X0.256250X0.218750X-0.256250X0.218750X-0.256250X-0.218750X0*%
%ADD59RoundRect,0.250000X0.650000X-0.412500X0.650000X0.412500X-0.650000X0.412500X-0.650000X-0.412500X0*%
%ADD60RoundRect,0.112500X-0.112500X0.187500X-0.112500X-0.187500X0.112500X-0.187500X0.112500X0.187500X0*%
%ADD61O,0.600000X2.000000*%
%ADD62O,2.000000X0.600000*%
%ADD63R,1.422400X0.533400*%
%ADD64RoundRect,0.375000X-0.625000X-0.375000X0.625000X-0.375000X0.625000X0.375000X-0.625000X0.375000X0*%
%ADD65RoundRect,0.500000X-0.500000X-1.400000X0.500000X-1.400000X0.500000X1.400000X-0.500000X1.400000X0*%
%ADD66R,0.900000X2.400000*%
%ADD67RoundRect,0.375000X0.375000X-0.625000X0.375000X0.625000X-0.375000X0.625000X-0.375000X-0.625000X0*%
%ADD68RoundRect,0.500000X1.400000X-0.500000X1.400000X0.500000X-1.400000X0.500000X-1.400000X-0.500000X0*%
%ADD69R,0.400000X0.380000*%
%ADD70RoundRect,0.112500X-0.187500X-0.112500X0.187500X-0.112500X0.187500X0.112500X-0.187500X0.112500X0*%
%ADD71R,1.500000X0.400000*%
%ADD72RoundRect,0.225000X0.250000X-0.225000X0.250000X0.225000X-0.250000X0.225000X-0.250000X-0.225000X0*%
%ADD73RoundRect,0.218750X-0.218750X-0.256250X0.218750X-0.256250X0.218750X0.256250X-0.218750X0.256250X0*%
%ADD74RoundRect,0.112500X0.187500X0.112500X-0.187500X0.112500X-0.187500X-0.112500X0.187500X-0.112500X0*%
%ADD75RoundRect,0.150000X0.150000X-0.587500X0.150000X0.587500X-0.150000X0.587500X-0.150000X-0.587500X0*%
%ADD76RoundRect,0.100000X0.400000X-0.400000X0.400000X0.400000X-0.400000X0.400000X-0.400000X-0.400000X0*%
%ADD77RoundRect,0.105000X0.995000X-0.420000X0.995000X0.420000X-0.995000X0.420000X-0.995000X-0.420000X0*%
%ADD78RoundRect,0.250000X-0.412500X-0.650000X0.412500X-0.650000X0.412500X0.650000X-0.412500X0.650000X0*%
%ADD79R,0.600000X1.140000*%
%ADD80R,0.300000X1.140000*%
%ADD81RoundRect,0.150000X-0.150000X0.587500X-0.150000X-0.587500X0.150000X-0.587500X0.150000X0.587500X0*%
%ADD82RoundRect,0.073750X0.221250X-0.911250X0.221250X0.911250X-0.221250X0.911250X-0.221250X-0.911250X0*%
%ADD83R,1.500000X0.900000*%
%ADD84R,0.900000X1.500000*%
%ADD85R,0.900000X0.900000*%
G04 APERTURE END LIST*
D10*
%TO.C,U14*%
X168067500Y-105995000D02*
X166707500Y-105995000D01*
X166707500Y-104635000D01*
X168067500Y-104635000D01*
X168067500Y-105995000D01*
G36*
X168067500Y-105995000D02*
G01*
X166707500Y-105995000D01*
X166707500Y-104635000D01*
X168067500Y-104635000D01*
X168067500Y-105995000D01*
G37*
%TO.C,Q6*%
X190550000Y-102357500D02*
X190285000Y-102357500D01*
X190285000Y-101682500D01*
X190550000Y-101682500D01*
X190550000Y-102357500D01*
G36*
X190550000Y-102357500D02*
G01*
X190285000Y-102357500D01*
X190285000Y-101682500D01*
X190550000Y-101682500D01*
X190550000Y-102357500D01*
G37*
X190065000Y-98737500D02*
X189525000Y-98737500D01*
X189525000Y-98472500D01*
X190065000Y-98472500D01*
X190065000Y-98737500D01*
G36*
X190065000Y-98737500D02*
G01*
X189525000Y-98737500D01*
X189525000Y-98472500D01*
X190065000Y-98472500D01*
X190065000Y-98737500D01*
G37*
X189645000Y-102375000D02*
X188155000Y-102375000D01*
X188155000Y-101135000D01*
X189645000Y-101135000D01*
X189645000Y-102375000D01*
G36*
X189645000Y-102375000D02*
G01*
X188155000Y-102375000D01*
X188155000Y-101135000D01*
X189645000Y-101135000D01*
X189645000Y-102375000D01*
G37*
X189645000Y-100605000D02*
X188155000Y-100605000D01*
X188155000Y-99365000D01*
X189645000Y-99365000D01*
X189645000Y-100605000D01*
G36*
X189645000Y-100605000D02*
G01*
X188155000Y-100605000D01*
X188155000Y-99365000D01*
X189645000Y-99365000D01*
X189645000Y-100605000D01*
G37*
X187625000Y-102375000D02*
X186135000Y-102375000D01*
X186135000Y-101135000D01*
X187625000Y-101135000D01*
X187625000Y-102375000D01*
G36*
X187625000Y-102375000D02*
G01*
X186135000Y-102375000D01*
X186135000Y-101135000D01*
X187625000Y-101135000D01*
X187625000Y-102375000D01*
G37*
X187625000Y-100605000D02*
X186135000Y-100605000D01*
X186135000Y-99365000D01*
X187625000Y-99365000D01*
X187625000Y-100605000D01*
G36*
X187625000Y-100605000D02*
G01*
X186135000Y-100605000D01*
X186135000Y-99365000D01*
X187625000Y-99365000D01*
X187625000Y-100605000D01*
G37*
X186255000Y-98737500D02*
X185715000Y-98737500D01*
X185715000Y-98472500D01*
X186255000Y-98472500D01*
X186255000Y-98737500D01*
G36*
X186255000Y-98737500D02*
G01*
X185715000Y-98737500D01*
X185715000Y-98472500D01*
X186255000Y-98472500D01*
X186255000Y-98737500D01*
G37*
X185487500Y-102357500D02*
X185222500Y-102357500D01*
X185222500Y-101682500D01*
X185487500Y-101682500D01*
X185487500Y-102357500D01*
G36*
X185487500Y-102357500D02*
G01*
X185222500Y-102357500D01*
X185222500Y-101682500D01*
X185487500Y-101682500D01*
X185487500Y-102357500D01*
G37*
%TO.C,Q5*%
X183260000Y-91255000D02*
X182020000Y-91255000D01*
X182020000Y-89765000D01*
X183260000Y-89765000D01*
X183260000Y-91255000D01*
G36*
X183260000Y-91255000D02*
G01*
X182020000Y-91255000D01*
X182020000Y-89765000D01*
X183260000Y-89765000D01*
X183260000Y-91255000D01*
G37*
X183260000Y-89235000D02*
X182020000Y-89235000D01*
X182020000Y-87745000D01*
X183260000Y-87745000D01*
X183260000Y-89235000D01*
G36*
X183260000Y-89235000D02*
G01*
X182020000Y-89235000D01*
X182020000Y-87745000D01*
X183260000Y-87745000D01*
X183260000Y-89235000D01*
G37*
X183242500Y-92167500D02*
X182567500Y-92167500D01*
X182567500Y-91902500D01*
X183242500Y-91902500D01*
X183242500Y-92167500D01*
G36*
X183242500Y-92167500D02*
G01*
X182567500Y-92167500D01*
X182567500Y-91902500D01*
X183242500Y-91902500D01*
X183242500Y-92167500D01*
G37*
X183242500Y-87105000D02*
X182567500Y-87105000D01*
X182567500Y-86840000D01*
X183242500Y-86840000D01*
X183242500Y-87105000D01*
G36*
X183242500Y-87105000D02*
G01*
X182567500Y-87105000D01*
X182567500Y-86840000D01*
X183242500Y-86840000D01*
X183242500Y-87105000D01*
G37*
X181490000Y-91255000D02*
X180250000Y-91255000D01*
X180250000Y-89765000D01*
X181490000Y-89765000D01*
X181490000Y-91255000D01*
G36*
X181490000Y-91255000D02*
G01*
X180250000Y-91255000D01*
X180250000Y-89765000D01*
X181490000Y-89765000D01*
X181490000Y-91255000D01*
G37*
X181490000Y-89235000D02*
X180250000Y-89235000D01*
X180250000Y-87745000D01*
X181490000Y-87745000D01*
X181490000Y-89235000D01*
G36*
X181490000Y-89235000D02*
G01*
X180250000Y-89235000D01*
X180250000Y-87745000D01*
X181490000Y-87745000D01*
X181490000Y-89235000D01*
G37*
X179622500Y-91675000D02*
X179357500Y-91675000D01*
X179357500Y-91135000D01*
X179622500Y-91135000D01*
X179622500Y-91675000D01*
G36*
X179622500Y-91675000D02*
G01*
X179357500Y-91675000D01*
X179357500Y-91135000D01*
X179622500Y-91135000D01*
X179622500Y-91675000D01*
G37*
X179622500Y-87865000D02*
X179357500Y-87865000D01*
X179357500Y-87325000D01*
X179622500Y-87325000D01*
X179622500Y-87865000D01*
G36*
X179622500Y-87865000D02*
G01*
X179357500Y-87865000D01*
X179357500Y-87325000D01*
X179622500Y-87325000D01*
X179622500Y-87865000D01*
G37*
%TO.C,U16*%
X193626000Y-72490000D02*
X191924000Y-72490000D01*
X191924000Y-70330000D01*
X193626000Y-70330000D01*
X193626000Y-72490000D01*
G36*
X193626000Y-72490000D02*
G01*
X191924000Y-72490000D01*
X191924000Y-70330000D01*
X193626000Y-70330000D01*
X193626000Y-72490000D01*
G37*
%TO.C,U3*%
X111165000Y-81335000D02*
X109835000Y-81335000D01*
X109835000Y-80415000D01*
X111165000Y-80415000D01*
X111165000Y-81335000D01*
G36*
X111165000Y-81335000D02*
G01*
X109835000Y-81335000D01*
X109835000Y-80415000D01*
X111165000Y-80415000D01*
X111165000Y-81335000D01*
G37*
X111165000Y-82455000D02*
X109835000Y-82455000D01*
X109835000Y-81535000D01*
X111165000Y-81535000D01*
X111165000Y-82455000D01*
G36*
X111165000Y-82455000D02*
G01*
X109835000Y-82455000D01*
X109835000Y-81535000D01*
X111165000Y-81535000D01*
X111165000Y-82455000D01*
G37*
X112705000Y-81335000D02*
X111375000Y-81335000D01*
X111375000Y-80415000D01*
X112705000Y-80415000D01*
X112705000Y-81335000D01*
G36*
X112705000Y-81335000D02*
G01*
X111375000Y-81335000D01*
X111375000Y-80415000D01*
X112705000Y-80415000D01*
X112705000Y-81335000D01*
G37*
X112705000Y-82455000D02*
X111375000Y-82455000D01*
X111375000Y-81535000D01*
X112705000Y-81535000D01*
X112705000Y-82455000D01*
G36*
X112705000Y-82455000D02*
G01*
X111375000Y-82455000D01*
X111375000Y-81535000D01*
X112705000Y-81535000D01*
X112705000Y-82455000D01*
G37*
%TD*%
D11*
%TO.C,U14*%
X169072500Y-104565000D03*
X169072500Y-105065000D03*
X169072500Y-105565000D03*
X169072500Y-106065000D03*
D12*
X168137500Y-107000000D03*
X167637500Y-107000000D03*
X167137500Y-107000000D03*
X166637500Y-107000000D03*
D11*
X165702500Y-106065000D03*
X165702500Y-105565000D03*
X165702500Y-105065000D03*
X165702500Y-104565000D03*
D12*
X166637500Y-103630000D03*
X167137500Y-103630000D03*
X167637500Y-103630000D03*
X168137500Y-103630000D03*
%TD*%
D13*
%TO.C,R50*%
X165637500Y-96165000D03*
X165637500Y-97815000D03*
%TD*%
D14*
%TO.C,C58*%
X202025000Y-73847500D03*
X202025000Y-72297500D03*
%TD*%
D15*
%TO.C,C43*%
X176750000Y-107000000D03*
X175025000Y-107000000D03*
%TD*%
D16*
%TO.C,C45*%
X190900000Y-65910000D03*
X194025000Y-65910000D03*
%TD*%
D17*
%TO.C,L1*%
X204147710Y-91951666D03*
D18*
X208647710Y-104851666D03*
X199647710Y-104851666D03*
%TD*%
D19*
%TO.C,R52*%
X154887500Y-117500000D03*
X153237500Y-117500000D03*
%TD*%
D20*
%TO.C,C46*%
X187775000Y-75410000D03*
X187775000Y-73685000D03*
%TD*%
D19*
%TO.C,R67*%
X170212500Y-117862500D03*
X168562500Y-117862500D03*
%TD*%
D21*
%TO.C,C44*%
X183525000Y-76885000D03*
X183525000Y-72485000D03*
%TD*%
D22*
%TO.C,R57*%
X158812500Y-103637500D03*
X160462500Y-103637500D03*
%TD*%
D23*
%TO.C,L2*%
X202925000Y-63660000D03*
X198775000Y-63660000D03*
%TD*%
D24*
%TO.C,C53*%
X165137500Y-109137500D03*
X165137500Y-110862500D03*
%TD*%
D14*
%TO.C,C62*%
X227645210Y-73486666D03*
X227645210Y-71936666D03*
%TD*%
D25*
%TO.C,D22*%
X173137500Y-107100000D03*
X173137500Y-104900000D03*
%TD*%
D26*
%TO.C,C42*%
X174887500Y-104750000D03*
X176612500Y-104750000D03*
%TD*%
%TO.C,C54*%
X165662500Y-114362500D03*
X167387500Y-114362500D03*
%TD*%
D24*
%TO.C,C40*%
X162137500Y-103775000D03*
X162137500Y-105500000D03*
%TD*%
D27*
%TO.C,R65*%
X200025000Y-72160000D03*
X200025000Y-73985000D03*
%TD*%
D28*
%TO.C,C47*%
X171000000Y-93312500D03*
X171000000Y-90187500D03*
%TD*%
D29*
%TO.C,R49*%
X151500000Y-82250000D03*
X149675000Y-82250000D03*
%TD*%
D30*
%TO.C,R53*%
X145337500Y-90250000D03*
X147162500Y-90250000D03*
%TD*%
D31*
%TO.C,R56*%
X157137500Y-105212500D03*
X157137500Y-103562500D03*
%TD*%
D14*
%TO.C,C61*%
X225975210Y-73556666D03*
X225975210Y-72006666D03*
%TD*%
D32*
%TO.C,R61*%
X221775000Y-108750000D03*
X217500000Y-108750000D03*
%TD*%
D29*
%TO.C,R46*%
X147662500Y-80500000D03*
X145837500Y-80500000D03*
%TD*%
D22*
%TO.C,R54*%
X151562500Y-119750000D03*
X153212500Y-119750000D03*
%TD*%
D33*
%TO.C,D23*%
X219450000Y-98890000D03*
D34*
X219450000Y-92490000D03*
%TD*%
D19*
%TO.C,R59*%
X160387500Y-102000000D03*
X158737500Y-102000000D03*
%TD*%
D15*
%TO.C,C37*%
X156637500Y-112500000D03*
X154912500Y-112500000D03*
%TD*%
D22*
%TO.C,R60*%
X171562500Y-103000000D03*
X173212500Y-103000000D03*
%TD*%
%TO.C,R68*%
X168562500Y-119612500D03*
X170212500Y-119612500D03*
%TD*%
D15*
%TO.C,C60*%
X209025000Y-70410000D03*
X207300000Y-70410000D03*
%TD*%
D35*
%TO.C,D19*%
X155137500Y-119750000D03*
X156712500Y-119750000D03*
%TD*%
D27*
%TO.C,R63*%
X200100000Y-68160000D03*
X200100000Y-69985000D03*
%TD*%
D36*
%TO.C,U17*%
X230315210Y-70516666D03*
D37*
X232615210Y-76816666D03*
D36*
X232615210Y-70516666D03*
X234915210Y-70516666D03*
%TD*%
D13*
%TO.C,R66*%
X170137500Y-114537500D03*
X170137500Y-116187500D03*
%TD*%
D20*
%TO.C,C39*%
X148887500Y-91862500D03*
X148887500Y-90137500D03*
%TD*%
D38*
%TO.C,Q6*%
X189795000Y-104362500D03*
X188525000Y-104362500D03*
X187255000Y-104362500D03*
X185985000Y-104362500D03*
%TD*%
D39*
%TO.C,C64*%
X235010210Y-65676666D03*
X233460210Y-65676666D03*
%TD*%
D30*
%TO.C,R47*%
X145750000Y-82250000D03*
X147575000Y-82250000D03*
%TD*%
%TO.C,R48*%
X149675000Y-80500000D03*
X151500000Y-80500000D03*
%TD*%
D13*
%TO.C,R58*%
X168137500Y-96240000D03*
X168137500Y-97890000D03*
%TD*%
D40*
%TO.C,Q5*%
X185247500Y-87595000D03*
X185247500Y-88865000D03*
X185247500Y-90135000D03*
X185247500Y-91405000D03*
%TD*%
D35*
%TO.C,D20*%
X155025000Y-115250000D03*
X156600000Y-115250000D03*
%TD*%
D41*
%TO.C,D21*%
X160250000Y-90250000D03*
D42*
X166650000Y-90250000D03*
%TD*%
D39*
%TO.C,C55*%
X201775000Y-75822500D03*
X200225000Y-75822500D03*
%TD*%
D24*
%TO.C,C51*%
X162627500Y-109137500D03*
X162627500Y-110862500D03*
%TD*%
D15*
%TO.C,C59*%
X209025000Y-67900000D03*
X207300000Y-67900000D03*
%TD*%
D43*
%TO.C,Q7*%
X165327500Y-120612500D03*
X163447500Y-121562500D03*
X163447500Y-119662500D03*
%TD*%
D20*
%TO.C,C38*%
X163637500Y-97990000D03*
X163637500Y-96265000D03*
%TD*%
D28*
%TO.C,C48*%
X175000000Y-93375000D03*
X175000000Y-90250000D03*
%TD*%
D15*
%TO.C,C56*%
X209025000Y-65390000D03*
X207300000Y-65390000D03*
%TD*%
D20*
%TO.C,C52*%
X203775000Y-69772500D03*
X203775000Y-68047500D03*
%TD*%
D44*
%TO.C,Q4*%
X158687500Y-96620000D03*
X159637500Y-98500000D03*
X157737500Y-98500000D03*
%TD*%
D20*
%TO.C,C49*%
X167137500Y-110862500D03*
X167137500Y-109137500D03*
%TD*%
D31*
%TO.C,R51*%
X161387500Y-98140000D03*
X161387500Y-96490000D03*
%TD*%
D24*
%TO.C,C41*%
X169887500Y-96090000D03*
X169887500Y-97815000D03*
%TD*%
D45*
%TO.C,R62*%
X202100000Y-69910000D03*
X202100000Y-68085000D03*
%TD*%
D46*
%TO.C,C57*%
X224012500Y-87890000D03*
X220887500Y-87890000D03*
%TD*%
D13*
%TO.C,R45*%
X154887500Y-108750000D03*
X154887500Y-110400000D03*
%TD*%
%TO.C,R44*%
X156637500Y-108750000D03*
X156637500Y-110400000D03*
%TD*%
D20*
%TO.C,C50*%
X169000000Y-110862500D03*
X169000000Y-109137500D03*
%TD*%
D47*
%TO.C,TH1*%
X174387500Y-118750000D03*
X174387500Y-114475000D03*
%TD*%
D22*
%TO.C,R55*%
X151487500Y-115250000D03*
X153137500Y-115250000D03*
%TD*%
D13*
%TO.C,R64*%
X165637500Y-116287500D03*
X165637500Y-117937500D03*
%TD*%
D48*
%TO.C,U15*%
X149175000Y-87250000D03*
X148675000Y-87250000D03*
X148175000Y-87250000D03*
X147675000Y-87250000D03*
D49*
X147750000Y-86450000D03*
X147750000Y-85750000D03*
D48*
X147675000Y-84950000D03*
X148175000Y-84950000D03*
X148675000Y-84950000D03*
X149175000Y-84950000D03*
D49*
X149100000Y-85750000D03*
X149100000Y-86450000D03*
%TD*%
D50*
%TO.C,U16*%
X195250000Y-69505000D03*
X195250000Y-70775000D03*
X195250000Y-72045000D03*
X195250000Y-73315000D03*
X190300000Y-73315000D03*
X190300000Y-72045000D03*
X190300000Y-70775000D03*
X190300000Y-69505000D03*
%TD*%
D39*
%TO.C,C63*%
X234990210Y-67476666D03*
X233440210Y-67476666D03*
%TD*%
D51*
%TO.C,D3*%
X94677500Y-89180000D03*
X92477500Y-89180000D03*
%TD*%
D31*
%TO.C,R3*%
X126800000Y-75860000D03*
X126800000Y-77510000D03*
%TD*%
D52*
%TO.C,C28*%
X82249000Y-51515000D03*
X80699000Y-51515000D03*
%TD*%
D53*
%TO.C,U3*%
X109120000Y-82185000D03*
D54*
X109520000Y-83085000D03*
X110020000Y-83085000D03*
X110520000Y-83085000D03*
X111020000Y-83085000D03*
X111520000Y-83085000D03*
X112020000Y-83085000D03*
X112520000Y-83085000D03*
X113020000Y-83085000D03*
D53*
X113420000Y-82185000D03*
X113420000Y-80685000D03*
D54*
X113020000Y-79785000D03*
X112520000Y-79785000D03*
X112020000Y-79785000D03*
X111520000Y-79785000D03*
X111020000Y-79785000D03*
X110520000Y-79785000D03*
X110020000Y-79785000D03*
X109520000Y-79785000D03*
D53*
X109120000Y-80685000D03*
%TD*%
D55*
%TO.C,GSM2*%
X78510000Y-123460000D03*
D56*
X79985000Y-124960000D03*
D55*
X78510000Y-126460000D03*
D56*
X77035000Y-124960000D03*
%TD*%
D31*
%TO.C,R34*%
X43735000Y-60952500D03*
X43735000Y-62602500D03*
%TD*%
D14*
%TO.C,C5*%
X128930000Y-100015000D03*
X128930000Y-101565000D03*
%TD*%
D57*
%TO.C,D7*%
X127200000Y-112050000D03*
X129400000Y-112050000D03*
%TD*%
D39*
%TO.C,C15*%
X126055000Y-105380000D03*
X127605000Y-105380000D03*
%TD*%
%TO.C,C22*%
X80245000Y-120390000D03*
X81795000Y-120390000D03*
%TD*%
%TO.C,C4*%
X54670000Y-50690000D03*
X56220000Y-50690000D03*
%TD*%
D19*
%TO.C,R39*%
X85989000Y-45635000D03*
X87639000Y-45635000D03*
%TD*%
D14*
%TO.C,C7*%
X116500000Y-122135000D03*
X116500000Y-123685000D03*
%TD*%
D13*
%TO.C,R42*%
X111590000Y-49430000D03*
X111590000Y-47780000D03*
%TD*%
D58*
%TO.C,D13*%
X79670000Y-74630000D03*
X79670000Y-73055000D03*
%TD*%
D59*
%TO.C,C14*%
X53840000Y-44042500D03*
X53840000Y-40917500D03*
%TD*%
D60*
%TO.C,D25*%
X55190000Y-96602500D03*
X55190000Y-98702500D03*
%TD*%
D22*
%TO.C,R15*%
X136000000Y-103045000D03*
X134350000Y-103045000D03*
%TD*%
D14*
%TO.C,C1*%
X105320000Y-124405000D03*
X105320000Y-125955000D03*
%TD*%
D22*
%TO.C,R20*%
X81625000Y-68160000D03*
X79975000Y-68160000D03*
%TD*%
D19*
%TO.C,R16*%
X120947500Y-116170000D03*
X122597500Y-116170000D03*
%TD*%
D31*
%TO.C,R26*%
X86820000Y-73015000D03*
X86820000Y-74665000D03*
%TD*%
D22*
%TO.C,R36*%
X45720000Y-98872500D03*
X44070000Y-98872500D03*
%TD*%
D13*
%TO.C,R37*%
X44150000Y-102095000D03*
X44150000Y-100445000D03*
%TD*%
%TO.C,R40*%
X121610000Y-49275000D03*
X121610000Y-47625000D03*
%TD*%
D39*
%TO.C,C21*%
X80235000Y-118640000D03*
X81785000Y-118640000D03*
%TD*%
D61*
%TO.C,U5*%
X118270000Y-88190000D03*
X117270000Y-88190000D03*
X116270000Y-88190000D03*
X115270000Y-88190000D03*
X114270000Y-88190000D03*
X113270000Y-88190000D03*
X112270000Y-88190000D03*
X111270000Y-88190000D03*
X110270000Y-88190000D03*
X109270000Y-88190000D03*
X108270000Y-88190000D03*
X107270000Y-88190000D03*
X106270000Y-88190000D03*
X105270000Y-88190000D03*
X104270000Y-88190000D03*
X103270000Y-88190000D03*
X102270000Y-88190000D03*
D62*
X98270000Y-92190000D03*
X98270000Y-93190000D03*
X98270000Y-94190000D03*
X98270000Y-95190000D03*
X98270000Y-96190000D03*
X98270000Y-97190000D03*
X98270000Y-98190000D03*
X98270000Y-99190000D03*
X98270000Y-100190000D03*
X98270000Y-101190000D03*
X98270000Y-102190000D03*
X98270000Y-103190000D03*
X98270000Y-104190000D03*
X98270000Y-105190000D03*
X98270000Y-106190000D03*
X98270000Y-107190000D03*
X98270000Y-108190000D03*
D61*
X102270000Y-112190000D03*
X103270000Y-112190000D03*
X104270000Y-112190000D03*
X105270000Y-112190000D03*
X106270000Y-112190000D03*
X107270000Y-112190000D03*
X108270000Y-112190000D03*
X109270000Y-112190000D03*
X110270000Y-112190000D03*
X111270000Y-112190000D03*
X112270000Y-112190000D03*
X113270000Y-112190000D03*
X114270000Y-112190000D03*
X115270000Y-112190000D03*
X116270000Y-112190000D03*
X117270000Y-112190000D03*
X118270000Y-112190000D03*
D62*
X122270000Y-108190000D03*
X122270000Y-107190000D03*
X122270000Y-106190000D03*
X122270000Y-105190000D03*
X122270000Y-104190000D03*
X122270000Y-103190000D03*
X122270000Y-102190000D03*
X122270000Y-101190000D03*
X122270000Y-100190000D03*
X122270000Y-99190000D03*
X122270000Y-98190000D03*
X122270000Y-97190000D03*
X122270000Y-96190000D03*
X122270000Y-95190000D03*
X122270000Y-94190000D03*
X122270000Y-93190000D03*
X122270000Y-92190000D03*
%TD*%
D13*
%TO.C,R5*%
X94592500Y-98995000D03*
X94592500Y-97345000D03*
%TD*%
D63*
%TO.C,U11*%
X90524000Y-51515000D03*
X90524000Y-50245000D03*
X90524000Y-48975000D03*
X90524000Y-47705000D03*
X84936000Y-47705000D03*
X84936000Y-48975000D03*
X84936000Y-50245000D03*
X84936000Y-51515000D03*
%TD*%
D31*
%TO.C,R12*%
X56730000Y-58185000D03*
X56730000Y-59835000D03*
%TD*%
D39*
%TO.C,C34*%
X111565000Y-58410000D03*
X113115000Y-58410000D03*
%TD*%
D13*
%TO.C,R14*%
X135870000Y-112540000D03*
X135870000Y-110890000D03*
%TD*%
D39*
%TO.C,C32*%
X111595000Y-55220000D03*
X113145000Y-55220000D03*
%TD*%
D52*
%TO.C,C12*%
X126665000Y-83950000D03*
X125115000Y-83950000D03*
%TD*%
D14*
%TO.C,C26*%
X85130000Y-73055000D03*
X85130000Y-74605000D03*
%TD*%
D52*
%TO.C,C27*%
X66065000Y-89240000D03*
X64515000Y-89240000D03*
%TD*%
D64*
%TO.C,U1*%
X107840000Y-119737500D03*
X107840000Y-122037500D03*
D65*
X114140000Y-122037500D03*
D64*
X107840000Y-124337500D03*
%TD*%
D39*
%TO.C,C30*%
X55175000Y-94490000D03*
X56725000Y-94490000D03*
%TD*%
D66*
%TO.C,U9*%
X76240000Y-92220000D03*
X74970000Y-92220000D03*
X73700000Y-92220000D03*
X72430000Y-92220000D03*
X71160000Y-92220000D03*
X69890000Y-92220000D03*
X68560000Y-92220000D03*
X67350000Y-92220000D03*
X66080000Y-92220000D03*
X66080000Y-108220000D03*
X67350000Y-108220000D03*
X68560000Y-108220000D03*
X69890000Y-108220000D03*
X71160000Y-108220000D03*
X72430000Y-108220000D03*
X73700000Y-108220000D03*
X74970000Y-108220000D03*
X76240000Y-108220000D03*
%TD*%
D58*
%TO.C,D18*%
X113230000Y-52507500D03*
X113230000Y-50932500D03*
%TD*%
D31*
%TO.C,R10*%
X74310000Y-64415000D03*
X74310000Y-66065000D03*
%TD*%
%TO.C,R33*%
X43915000Y-90662500D03*
X43915000Y-92312500D03*
%TD*%
%TO.C,R7*%
X83110000Y-56155000D03*
X83110000Y-57805000D03*
%TD*%
D19*
%TO.C,R4*%
X54675000Y-47110000D03*
X56325000Y-47110000D03*
%TD*%
D22*
%TO.C,R30*%
X70745000Y-122900000D03*
X69095000Y-122900000D03*
%TD*%
D39*
%TO.C,C16*%
X126060000Y-107110000D03*
X127610000Y-107110000D03*
%TD*%
D14*
%TO.C,C31*%
X57380000Y-85330000D03*
X57380000Y-86880000D03*
%TD*%
D31*
%TO.C,R32*%
X44180000Y-79915000D03*
X44180000Y-81565000D03*
%TD*%
D67*
%TO.C,U10*%
X50580000Y-92160000D03*
X52880000Y-92160000D03*
D68*
X52880000Y-85860000D03*
D67*
X55180000Y-92160000D03*
%TD*%
D19*
%TO.C,R1*%
X129045000Y-98410000D03*
X130695000Y-98410000D03*
%TD*%
D31*
%TO.C,R8*%
X81340000Y-56115000D03*
X81340000Y-57765000D03*
%TD*%
D69*
%TO.C,FB1*%
X125850000Y-111669000D03*
X125850000Y-112231000D03*
%TD*%
D59*
%TO.C,C25*%
X65600000Y-86922500D03*
X65600000Y-83797500D03*
%TD*%
D70*
%TO.C,D20*%
X102210000Y-48750000D03*
X104310000Y-48750000D03*
%TD*%
D71*
%TO.C,U13*%
X100625000Y-51345000D03*
X100625000Y-51995000D03*
X100625000Y-52645000D03*
X100625000Y-53295000D03*
X100625000Y-53945000D03*
X100625000Y-54595000D03*
X100625000Y-55245000D03*
X100625000Y-55895000D03*
X100625000Y-56545000D03*
X100625000Y-57195000D03*
X100625000Y-57845000D03*
X100625000Y-58495000D03*
X100625000Y-59145000D03*
X100625000Y-59795000D03*
X107875000Y-59795000D03*
X107875000Y-59145000D03*
X107875000Y-58495000D03*
X107875000Y-57845000D03*
X107875000Y-57195000D03*
X107875000Y-56545000D03*
X107875000Y-55895000D03*
X107875000Y-55245000D03*
X107875000Y-54595000D03*
X107875000Y-53945000D03*
X107875000Y-53295000D03*
X107875000Y-52645000D03*
X107875000Y-51995000D03*
X107875000Y-51345000D03*
%TD*%
D13*
%TO.C,R2*%
X92902500Y-98995000D03*
X92902500Y-97345000D03*
%TD*%
D72*
%TO.C,C13*%
X56250000Y-44315000D03*
X56250000Y-42765000D03*
%TD*%
D51*
%TO.C,D4*%
X126850000Y-85790000D03*
X124650000Y-85790000D03*
%TD*%
D72*
%TO.C,C36*%
X100020000Y-42312500D03*
X100020000Y-40762500D03*
%TD*%
D73*
%TO.C,D11*%
X67782500Y-85420000D03*
X69357500Y-85420000D03*
%TD*%
D39*
%TO.C,C35*%
X102255000Y-47020000D03*
X103805000Y-47020000D03*
%TD*%
D13*
%TO.C,R41*%
X118500000Y-49215000D03*
X118500000Y-47565000D03*
%TD*%
D64*
%TO.C,U12*%
X102390000Y-40270000D03*
X102390000Y-42570000D03*
D65*
X108690000Y-42570000D03*
D64*
X102390000Y-44870000D03*
%TD*%
D73*
%TO.C,D9*%
X117555000Y-116160000D03*
X119130000Y-116160000D03*
%TD*%
D52*
%TO.C,C11*%
X94455000Y-91050000D03*
X92905000Y-91050000D03*
%TD*%
D74*
%TO.C,D21*%
X103097500Y-124420000D03*
X100997500Y-124420000D03*
%TD*%
D13*
%TO.C,R43*%
X113230000Y-49430000D03*
X113230000Y-47780000D03*
%TD*%
D52*
%TO.C,C2*%
X107135000Y-79530000D03*
X105585000Y-79530000D03*
%TD*%
D13*
%TO.C,R11*%
X72410000Y-66085000D03*
X72410000Y-64435000D03*
%TD*%
%TO.C,R38*%
X43845000Y-70832500D03*
X43845000Y-69182500D03*
%TD*%
D75*
%TO.C,Q3*%
X134110000Y-108705000D03*
X136010000Y-108705000D03*
X135060000Y-106830000D03*
%TD*%
D76*
%TO.C,GSM1*%
X133430000Y-98410000D03*
D77*
X134930000Y-96935000D03*
D76*
X136430000Y-98410000D03*
D77*
X134930000Y-99885000D03*
%TD*%
D31*
%TO.C,R6*%
X125020000Y-75885000D03*
X125020000Y-77535000D03*
%TD*%
%TO.C,R29*%
X81480000Y-73027500D03*
X81480000Y-74677500D03*
%TD*%
D78*
%TO.C,C17*%
X126257500Y-109520000D03*
X129382500Y-109520000D03*
%TD*%
D52*
%TO.C,C8*%
X56230000Y-48870000D03*
X54680000Y-48870000D03*
%TD*%
D19*
%TO.C,R9*%
X63000000Y-40650000D03*
X64650000Y-40650000D03*
%TD*%
D75*
%TO.C,Q1*%
X92832500Y-95327500D03*
X94732500Y-95327500D03*
X93782500Y-93452500D03*
%TD*%
D39*
%TO.C,C33*%
X111575000Y-56820000D03*
X113125000Y-56820000D03*
%TD*%
D14*
%TO.C,C10*%
X130810000Y-100015000D03*
X130810000Y-101565000D03*
%TD*%
D79*
%TO.C,J24*%
X123000000Y-44077500D03*
X122200000Y-44077500D03*
D80*
X121050000Y-44077500D03*
X120050000Y-44077500D03*
X119550000Y-44077500D03*
X118550000Y-44077500D03*
D79*
X116600000Y-44077500D03*
X117400000Y-44077500D03*
D80*
X118050000Y-44077500D03*
X119050000Y-44077500D03*
X120550000Y-44077500D03*
X121550000Y-44077500D03*
%TD*%
D81*
%TO.C,Q2*%
X126930000Y-79542500D03*
X125030000Y-79542500D03*
X125980000Y-81417500D03*
%TD*%
D22*
%TO.C,R23*%
X69385000Y-86990000D03*
X67735000Y-86990000D03*
%TD*%
%TO.C,R21*%
X81595000Y-66380000D03*
X79945000Y-66380000D03*
%TD*%
D73*
%TO.C,D5*%
X59832500Y-40680000D03*
X61407500Y-40680000D03*
%TD*%
D82*
%TO.C,U8*%
X84065000Y-70035000D03*
X85335000Y-70035000D03*
X86605000Y-70035000D03*
X87875000Y-70035000D03*
X87875000Y-65085000D03*
X86605000Y-65085000D03*
X85335000Y-65085000D03*
X84065000Y-65085000D03*
%TD*%
D31*
%TO.C,R25*%
X83490000Y-73045000D03*
X83490000Y-74695000D03*
%TD*%
D13*
%TO.C,R13*%
X134180000Y-112550000D03*
X134180000Y-110900000D03*
%TD*%
D58*
%TO.C,D17*%
X111580000Y-52507500D03*
X111580000Y-50932500D03*
%TD*%
D83*
%TO.C,U4*%
X59620000Y-43090000D03*
X59620000Y-44360000D03*
X59620000Y-45630000D03*
X59620000Y-46900000D03*
X59620000Y-48170000D03*
X59620000Y-49440000D03*
X59620000Y-50710000D03*
X59620000Y-51980000D03*
X59620000Y-53250000D03*
X59620000Y-54520000D03*
X59620000Y-55790000D03*
X59620000Y-57060000D03*
X59620000Y-58330000D03*
X59620000Y-59600000D03*
D84*
X62660000Y-60850000D03*
X63930000Y-60850000D03*
X65200000Y-60850000D03*
X66470000Y-60850000D03*
X67740000Y-60850000D03*
X69010000Y-60850000D03*
X70280000Y-60850000D03*
X71550000Y-60850000D03*
X72820000Y-60850000D03*
X74090000Y-60850000D03*
D83*
X77120000Y-59600000D03*
X77120000Y-58330000D03*
X77120000Y-57060000D03*
X77120000Y-55790000D03*
X77120000Y-54520000D03*
X77120000Y-53250000D03*
X77120000Y-51980000D03*
X77120000Y-50710000D03*
X77120000Y-49440000D03*
X77120000Y-48170000D03*
X77120000Y-46900000D03*
X77120000Y-45630000D03*
X77120000Y-44360000D03*
X77120000Y-43090000D03*
D85*
X65470000Y-49030000D03*
X66870000Y-49030000D03*
X68270000Y-49030000D03*
X65470000Y-50430000D03*
X66870000Y-50430000D03*
X68270000Y-50430000D03*
X65470000Y-51830000D03*
X66870000Y-51830000D03*
X68270000Y-51830000D03*
%TD*%
D73*
%TO.C,D8*%
X134382500Y-104665000D03*
X135957500Y-104665000D03*
%TD*%
D52*
%TO.C,C6*%
X107165000Y-83290000D03*
X105615000Y-83290000D03*
%TD*%
D31*
%TO.C,R24*%
X78540000Y-118695000D03*
X78540000Y-120345000D03*
%TD*%
M02*
