M48
; DRILL file KiCad 10.0.1 date 2026-08-20T11:00:50
; FORMAT={-:-/ absolute / metric / decimal}
; #@! TF.CreationDate,2026-08-20T11:00:50+03:00
; #@! TF.GenerationSoftware,Kicad,Pcbnew,10.0.1
; #@! TF.FileFunction,Plated,1,2,PTH
FMAT,2
METRIC
; #@! TA.AperFunction,Plated,PTH,ViaDrill
T1C0.300
; #@! TA.AperFunction,Plated,PTH,ComponentDrill
T2C0.750
; #@! TA.AperFunction,Plated,PTH,ComponentDrill
T3C0.800
; #@! TA.AperFunction,Plated,PTH,ComponentDrill
T4C0.900
; #@! TA.AperFunction,Plated,PTH,ComponentDrill
T5C1.000
; #@! TA.AperFunction,Plated,PTH,ComponentDrill
T6C1.290
; #@! TA.AperFunction,Plated,PTH,ComponentDrill
T7C1.300
; #@! TA.AperFunction,Plated,PTH,ComponentDrill
T8C1.320
; #@! TA.AperFunction,Plated,PTH,ComponentDrill
T9C1.600
; #@! TA.AperFunction,Plated,PTH,ComponentDrill
T10C3.000
; #@! TA.AperFunction,Plated,PTH,ComponentDrill
T11C3.200
%
G90
G05
T1
X113.8Y-73.4
X113.8Y-76.8
X113.8Y-80.6
X113.8Y-84.8
X118.8Y-73.2
X118.8Y-76.6
X118.8Y-80.4
X118.8Y-84.6
X123.6Y-73.2
X123.6Y-76.6
X123.6Y-80.4
X123.6Y-84.6
X127.8Y-73.0
X127.8Y-76.4
X127.8Y-80.2
X127.8Y-84.4
X132.6Y-73.0
X132.6Y-76.4
X132.6Y-80.2
X132.6Y-84.4
X155.0Y-53.8
X155.0Y-57.2
X155.0Y-60.8
X160.0Y-53.6
X160.0Y-57.0
X160.0Y-60.6
X164.8Y-53.6
X164.8Y-57.0
X164.8Y-60.6
X169.0Y-53.4
X169.0Y-56.8
X169.0Y-60.4
X170.8Y-123.4
X170.8Y-126.4
X170.8Y-129.4
X173.8Y-53.4
X173.8Y-56.8
X173.8Y-60.4
X175.8Y-123.2
X175.8Y-126.2
X175.8Y-129.2
X180.6Y-123.2
X180.6Y-126.2
X180.6Y-129.2
X184.8Y-123.0
X184.8Y-126.0
X184.8Y-129.0
X189.6Y-123.0
X189.6Y-126.0
X189.6Y-129.0
X216.0Y-74.2
T2
X213.06Y-94.0
X213.06Y-117.5
X214.33Y-92.73
X214.33Y-116.23
X215.6Y-94.0
X215.6Y-117.5
T3
X85.0Y-118.69
X85.0Y-126.31
X85.013Y-106.147
X85.013Y-113.767
X92.59Y-133.0
X92.59Y-137.0
X100.21Y-133.0
X100.21Y-137.0
X155.0Y-81.19
X155.0Y-88.81
X162.5Y-81.19
X162.5Y-88.81
X167.5Y-81.19
X167.5Y-88.81
X192.2Y-51.29
X192.2Y-58.91
X197.2Y-51.29
X197.2Y-58.91
X204.82Y-124.88
X204.82Y-132.5
X215.6Y-81.38
X215.6Y-89.0
X215.6Y-102.38
X215.6Y-110.0
X218.0Y-52.29
X218.0Y-59.91
X221.55Y-52.38
X221.55Y-60.0
T4
X153.73Y-95.0
X156.27Y-95.0
X208.55Y-132.5
X211.09Y-132.5
T5
X121.4Y-115.35
X121.4Y-117.89
X121.4Y-120.43
X121.4Y-122.97
X121.4Y-125.51
X121.4Y-128.05
X158.65Y-72.15
X161.19Y-72.15
X163.73Y-72.15
X166.27Y-72.15
X168.81Y-72.15
X171.35Y-72.15
X185.57Y-68.32
X185.57Y-70.86
X185.57Y-79.03
X185.57Y-81.57
X185.67Y-88.32
X185.67Y-90.86
X185.67Y-99.03
X185.67Y-101.57
X204.43Y-68.32
X204.43Y-70.86
X204.43Y-79.03
X204.43Y-81.57
X204.53Y-88.32
X204.53Y-90.86
X204.53Y-99.03
X204.53Y-101.57
T6
X227.5Y-95.0
X227.5Y-115.0
T7
X77.5Y-70.0
X77.5Y-75.0
X77.5Y-80.0
X77.5Y-85.0
X77.5Y-107.5
X77.5Y-112.5
X77.5Y-120.0
X77.5Y-125.0
X107.5Y-135.0
X112.5Y-135.0
X181.9Y-55.0
X186.9Y-55.0
X202.2Y-55.6
X207.2Y-55.6
X212.2Y-55.6
X225.0Y-132.5
X227.5Y-55.0
X230.0Y-132.5
X232.5Y-55.0
X242.5Y-65.0
X242.5Y-70.0
T8
X229.5Y-89.0
X229.5Y-101.0
X229.5Y-109.0
X229.5Y-121.0
X241.7Y-89.0
X241.7Y-101.0
X241.7Y-109.0
X241.7Y-121.0
T9
X92.38Y-110.0
X92.38Y-120.0
X107.62Y-110.0
X107.62Y-120.0
X159.88Y-107.38
X175.12Y-107.38
X220.6Y-78.76
X220.6Y-94.0
X220.6Y-102.38
X220.6Y-117.62
T10
X87.9Y-59.9
X88.0Y-95.0
X142.0Y-73.7
X142.0Y-81.4
X142.1Y-59.9
X142.1Y-95.1
X153.15Y-114.6
X153.15Y-135.4
X198.95Y-114.6
X198.95Y-135.4
T11
X72.5Y-57.5
X72.5Y-132.5
X240.0Y-57.5
X240.0Y-132.5
M30
