%TF.GenerationSoftware,KiCad,Pcbnew,10.0.1*%
%TF.CreationDate,2026-08-20T11:00:57+03:00*%
%TF.ProjectId,AWS POWER,41575320-504f-4574-9552-2e6b69636164,rev?*%
%TF.SameCoordinates,Original*%
%TF.FileFunction,Soldermask,Bot*%
%TF.FilePolarity,Negative*%
%FSLAX46Y46*%
G04 Gerber Fmt 4.6, Leading zero omitted, Abs format (unit mm)*
G04 Created by KiCad (PCBNEW 10.0.1) date 2026-08-20 11:00:57*
%MOMM*%
%LPD*%
G01*
G04 APERTURE LIST*
G04 Aperture macros list*
%AMRoundRect*
0 Rectangle with rounded corners*
0 $1 Rounding radius*
0 $2 $3 $4 $5 $6 $7 $8 $9 X,Y pos of 4 corners*
0 Add a 4 corners polygon primitive as box body*
4,1,4,$2,$3,$4,$5,$6,$7,$8,$9,$2,$3,0*
0 Add four circle primitives for the rounded corners*
1,1,$1+$1,$2,$3*
1,1,$1+$1,$4,$5*
1,1,$1+$1,$6,$7*
1,1,$1+$1,$8,$9*
0 Add four rect primitives between the rounded corners*
20,1,$1+$1,$2,$3,$4,$5,0*
20,1,$1+$1,$4,$5,$6,$7,0*
20,1,$1+$1,$6,$7,$8,$9,0*
20,1,$1+$1,$8,$9,$2,$3,0*%
G04 Aperture macros list end*
%ADD10C,1.600000*%
%ADD11RoundRect,0.250000X0.550000X-0.550000X0.550000X0.550000X-0.550000X0.550000X-0.550000X-0.550000X0*%
%ADD12RoundRect,0.102000X-0.990000X-0.990000X0.990000X-0.990000X0.990000X0.990000X-0.990000X0.990000X0*%
%ADD13C,2.184000*%
%ADD14C,2.139000*%
%ADD15RoundRect,0.250000X1.350000X1.350000X-1.350000X1.350000X-1.350000X-1.350000X1.350000X-1.350000X0*%
%ADD16C,3.200000*%
%ADD17C,3.600000*%
%ADD18R,1.700000X1.700000*%
%ADD19C,1.700000*%
%ADD20RoundRect,0.250001X1.149999X1.149999X-1.149999X1.149999X-1.149999X-1.149999X1.149999X-1.149999X0*%
%ADD21C,2.800000*%
%ADD22RoundRect,0.250000X1.000000X1.000000X-1.000000X1.000000X-1.000000X-1.000000X1.000000X-1.000000X0*%
%ADD23C,2.500000*%
%ADD24RoundRect,0.250000X-1.000000X-1.000000X1.000000X-1.000000X1.000000X1.000000X-1.000000X1.000000X0*%
%ADD25R,1.800000X1.800000*%
%ADD26C,1.800000*%
%ADD27RoundRect,0.250000X1.000000X-1.000000X1.000000X1.000000X-1.000000X1.000000X-1.000000X-1.000000X0*%
%ADD28RoundRect,0.250000X-1.350000X1.350000X-1.350000X-1.350000X1.350000X-1.350000X1.350000X1.350000X0*%
%ADD29RoundRect,0.250000X-1.000000X1.000000X-1.000000X-1.000000X1.000000X-1.000000X1.000000X1.000000X0*%
%ADD30RoundRect,0.750000X-1.750000X-1.750000X1.750000X-1.750000X1.750000X1.750000X-1.750000X1.750000X0*%
%ADD31R,1.300000X1.300000*%
%ADD32C,1.300000*%
G04 APERTURE END LIST*
D10*
%TO.C,R30*%
X218000000Y-52290000D03*
X218000000Y-59910000D03*
%TD*%
D11*
%TO.C,SW7*%
X85012500Y-113767500D03*
D10*
X85012500Y-106147500D03*
%TD*%
D12*
%TO.C,K2*%
X229500000Y-109000000D03*
D13*
X229500000Y-121000000D03*
D14*
X227500000Y-115000000D03*
D13*
X241700000Y-109000000D03*
X241700000Y-121000000D03*
%TD*%
D15*
%TO.C,D13*%
X175120000Y-107380000D03*
D16*
X159880000Y-107380000D03*
%TD*%
D17*
%TO.C,H6*%
X240000000Y-57500000D03*
%TD*%
D18*
%TO.C,BK2*%
X185570000Y-68320000D03*
D19*
X185570000Y-70860000D03*
D18*
X185570000Y-79030000D03*
D19*
X185570000Y-81570000D03*
D18*
X204430000Y-68320000D03*
D19*
X204430000Y-70860000D03*
D18*
X204430000Y-79030000D03*
D19*
X204430000Y-81570000D03*
%TD*%
D20*
%TO.C,J47*%
X212200000Y-55600000D03*
D21*
X207200000Y-55600000D03*
X202200000Y-55600000D03*
%TD*%
D17*
%TO.C,H7*%
X240000000Y-132500000D03*
%TD*%
D10*
%TO.C,R4*%
X155000000Y-81190000D03*
X155000000Y-88810000D03*
%TD*%
%TO.C,R29*%
X221550000Y-52380000D03*
X221550000Y-60000000D03*
%TD*%
D22*
%TO.C,J60*%
X186900000Y-55000000D03*
D23*
X181900000Y-55000000D03*
%TD*%
D15*
%TO.C,D15*%
X107620000Y-120000000D03*
D16*
X92380000Y-120000000D03*
%TD*%
D24*
%TO.C,J65*%
X225000000Y-132500000D03*
D23*
X230000000Y-132500000D03*
%TD*%
D25*
%TO.C,D9*%
X153730000Y-95000000D03*
D26*
X156270000Y-95000000D03*
%TD*%
D27*
%TO.C,J61*%
X242500000Y-70000000D03*
D23*
X242500000Y-65000000D03*
%TD*%
D15*
%TO.C,D16*%
X107620000Y-110000000D03*
D16*
X92380000Y-110000000D03*
%TD*%
D11*
%TO.C,SW6*%
X85000000Y-126310000D03*
D10*
X85000000Y-118690000D03*
%TD*%
%TO.C,R27*%
X92590000Y-133000000D03*
X100210000Y-133000000D03*
%TD*%
D12*
%TO.C,K1*%
X229500000Y-89000000D03*
D13*
X229500000Y-101000000D03*
D14*
X227500000Y-95000000D03*
D13*
X241700000Y-89000000D03*
X241700000Y-101000000D03*
%TD*%
D10*
%TO.C,R20*%
X215600000Y-81380000D03*
X215600000Y-89000000D03*
%TD*%
%TO.C,R24*%
X167500000Y-88810000D03*
X167500000Y-81190000D03*
%TD*%
D17*
%TO.C,H8*%
X72500000Y-132500000D03*
%TD*%
D24*
%TO.C,J69*%
X107500000Y-135000000D03*
D23*
X112500000Y-135000000D03*
%TD*%
D28*
%TO.C,D10*%
X220600000Y-102380000D03*
D16*
X220600000Y-117620000D03*
%TD*%
D29*
%TO.C,J63*%
X77500000Y-70000000D03*
D23*
X77500000Y-75000000D03*
X77500000Y-80000000D03*
X77500000Y-85000000D03*
%TD*%
D17*
%TO.C,H8*%
X72500000Y-57500000D03*
%TD*%
D30*
%TO.C,BMS1*%
X87900000Y-59900000D03*
X88000000Y-95000000D03*
X142100000Y-59900000D03*
X142000000Y-73700000D03*
X142000000Y-81400000D03*
X142100000Y-95100000D03*
%TD*%
D10*
%TO.C,R5*%
X204820000Y-124880000D03*
X204820000Y-132500000D03*
%TD*%
D30*
%TO.C,BK1*%
X153150000Y-114600000D03*
X153150000Y-135400000D03*
X198950000Y-114600000D03*
X198950000Y-135400000D03*
%TD*%
D10*
%TO.C,R22*%
X215600000Y-102380000D03*
X215600000Y-110000000D03*
%TD*%
D22*
%TO.C,J18*%
X232500000Y-55000000D03*
D23*
X227500000Y-55000000D03*
%TD*%
D10*
%TO.C,R23*%
X197200000Y-58910000D03*
X197200000Y-51290000D03*
%TD*%
D19*
%TO.C,U2*%
X121400000Y-128050000D03*
X121400000Y-125510000D03*
X121400000Y-122970000D03*
X121400000Y-120430000D03*
X121400000Y-117890000D03*
D18*
X121400000Y-115350000D03*
%TD*%
D10*
%TO.C,R28*%
X192200000Y-51290000D03*
X192200000Y-58910000D03*
%TD*%
D31*
%TO.C,Q1*%
X213060000Y-94000000D03*
D32*
X214330000Y-92730000D03*
X215600000Y-94000000D03*
%TD*%
D18*
%TO.C,BK3*%
X185670000Y-88320000D03*
D19*
X185670000Y-90860000D03*
D18*
X185670000Y-99030000D03*
D19*
X185670000Y-101570000D03*
D18*
X204530000Y-88320000D03*
D19*
X204530000Y-90860000D03*
D18*
X204530000Y-99030000D03*
D19*
X204530000Y-101570000D03*
%TD*%
D25*
%TO.C,D14*%
X211090000Y-132500000D03*
D26*
X208550000Y-132500000D03*
%TD*%
D28*
%TO.C,D8*%
X220600000Y-78760000D03*
D16*
X220600000Y-94000000D03*
%TD*%
D10*
%TO.C,R25*%
X162500000Y-88810000D03*
X162500000Y-81190000D03*
%TD*%
%TO.C,R26*%
X92590000Y-137000000D03*
X100210000Y-137000000D03*
%TD*%
D29*
%TO.C,J64*%
X77500000Y-107500000D03*
D23*
X77500000Y-112500000D03*
%TD*%
D19*
%TO.C,U3*%
X171350000Y-72150000D03*
X168810000Y-72150000D03*
X166270000Y-72150000D03*
X163730000Y-72150000D03*
X161190000Y-72150000D03*
D18*
X158650000Y-72150000D03*
%TD*%
D29*
%TO.C,J62*%
X77500000Y-120000000D03*
D23*
X77500000Y-125000000D03*
%TD*%
D31*
%TO.C,Q2*%
X213060000Y-117500000D03*
D32*
X214330000Y-116230000D03*
X215600000Y-117500000D03*
%TD*%
M02*
